<?xml version="1.0" encoding="UTF-8" standalone="no"?>
<svg xmlns="http://www.w3.org/2000/svg" stroke-linecap="square" version="1.1" stroke-miterlimit="10" xmlns:xlink="http://www.w3.org/1999/xlink" viewBox="0.0 0.0 919.0 247.0" fill="none">
 <clipPath id="p.0">
  <path d="m0 0h919v247h-919v-247z"/>
 </clipPath>
 <g clip-path="url(#p.0)">
  <path fill-opacity="0" d="m0 0h919.04v247.54h-919.04z" fill="#000"/>
  <path d="m311.18 26.504h99.78v37.543h-99.78z" fill="#cfe2f3"/>
  <path d="m324.78 50.076v-5.8594h-1v-0.875h1v-0.71875q0-0.6875 0.125-1.0156 0.17188-0.4375 0.57812-0.71875 0.42188-0.28125 1.1719-0.28125 0.48438 0 1.0625 0.125l-0.17188 0.98438q-0.35938-0.0625-0.67188-0.0625-0.51562 0-0.73438 0.23438-0.21875 0.21875-0.21875 0.82812v0.625h1.3125v0.875h-1.3125v5.8594h-1.1406zm3.4217 0v-6.7344h1.0312v1.0156q0.39062-0.71875 0.71875-0.9375 0.34375-0.23438 0.73438-0.23438 0.57812 0 1.1719 0.35938l-0.39062 1.0625q-0.42188-0.25-0.82812-0.25-0.375 0-0.6875 0.23438-0.29688 0.21875-0.42188 0.625-0.1875 0.60938-0.1875 1.3281v3.5312h-1.1406zm4.0321-3.375q0-1.875 1.0312-2.7656 0.875-0.75 2.125-0.75 1.3906 0 2.2656 0.90625 0.89062 0.90625 0.89062 2.5156 0 1.2969-0.39062 2.0469t-1.1406 1.1719q-0.75 0.40625-1.625 0.40625-1.4219 0-2.2969-0.90625-0.85938-0.90625-0.85938-2.625zm1.1719 0q0 1.2969 0.5625 1.9531 0.5625 0.64062 1.4219 0.64062 0.84375 0 1.4062-0.64062 0.57812-0.65625 0.57812-1.9844 0-1.25-0.57812-1.8906-0.5625-0.65625-1.4062-0.65625-0.85938 0-1.4219 0.64062-0.5625 0.64062-0.5625 1.9375zm6.6625 3.375v-6.7344h1.0312v0.95312q0.73438-1.1094 2.1406-1.1094 0.60938 0 1.1094 0.21875 0.51562 0.21875 0.76562 0.57812 0.26562 0.34375 0.35938 0.84375 0.0625 0.3125 0.0625 1.1094v4.1406h-1.1406v-4.0938q0-0.70312-0.14062-1.0469-0.125-0.34375-0.46875-0.54688-0.32812-0.21875-0.78125-0.21875-0.73438 0-1.2656 0.46875-0.53125 0.45312-0.53125 1.75v3.6875h-1.1406zm9.9125-1.0156l0.15625 1q-0.48438 0.10938-0.85938 0.10938-0.625 0-0.96875-0.20312t-0.48438-0.51562q-0.14062-0.32812-0.14062-1.3438v-3.8906h-0.82812v-0.875h0.82812v-1.6719l1.1406-0.6875v2.3594h1.1562v0.875h-1.1562v3.9531q0 0.48438 0.0625 0.625t0.1875 0.21875q0.14062 0.078125 0.39062 0.078125 0.20312 0 0.51562-0.03125zm5.8123-1.1562l1.1875 0.14062q-0.28125 1.0469-1.0469 1.625-0.75 0.5625-1.9219 0.5625-1.4844 0-2.3594-0.90625-0.85938-0.92188-0.85938-2.5625 0-1.7031 0.875-2.6406 0.89062-0.9375 2.2812-0.9375 1.3594 0 2.2031 0.92188 0.85938 0.92188 0.85938 2.5781 0 0.10938 0 0.3125h-5.0312q0.0625 1.1094 0.625 1.7031 0.5625 0.59375 1.4062 0.59375 0.64062 0 1.0781-0.32812 0.45312-0.34375 0.70312-1.0625zm-3.75-1.8438h3.7656q-0.078125-0.85938-0.4375-1.2812-0.54688-0.65625-1.4062-0.65625-0.79688 0-1.3281 0.53125-0.53125 0.51562-0.59375 1.4062zm6.5531 4.0156v-6.7344h1.0312v0.95312q0.73438-1.1094 2.1406-1.1094 0.60938 0 1.1094 0.21875 0.51562 0.21875 0.76562 0.57812 0.26562 0.34375 0.35938 0.84375 0.0625 0.3125 0.0625 1.1094v4.1406h-1.1406v-4.0938q0-0.70312-0.14062-1.0469-0.125-0.34375-0.46875-0.54688-0.32812-0.21875-0.78125-0.21875-0.73438 0-1.2656 0.46875-0.53125 0.45312-0.53125 1.75v3.6875h-1.1406zm11.787 0v-0.84375q-0.64062 1-1.8906 1-0.79688 0-1.4844-0.4375-0.67188-0.45312-1.0469-1.25-0.375-0.79688-0.375-1.8281 0-1.0156 0.34375-1.8281 0.34375-0.82812 1.0156-1.2656 0.67188-0.4375 1.5-0.4375 0.60938 0 1.0781 0.26562 0.48438 0.25 0.78125 0.65625v-3.3438h1.1406v9.3125h-1.0625zm-3.6094-3.3594q0 1.2969 0.53125 1.9375 0.54688 0.64062 1.2969 0.64062 0.75 0 1.2656-0.60938 0.53125-0.625 0.53125-1.875 0-1.3906-0.53125-2.0312-0.53125-0.65625-1.3125-0.65625-0.76562 0-1.2812 0.625-0.5 0.625-0.5 1.9688zm9.8967 0.5625v-1.1406h3.5156v1.1406h-3.5156zm10.469 2.7969l-2.5625-6.7344h1.2031l1.4375 4.0312q0.23438 0.65625 0.4375 1.3594 0.15625-0.53125 0.42188-1.2812l1.5-4.1094h1.1719l-2.5469 6.7344h-1.0625zm8.7734 0h-1.1406v-7.2812q-0.42188 0.39062-1.0938 0.79688-0.65625 0.39062-1.1875 0.57812v-1.1094q0.95312-0.4375 1.6719-1.0781 0.71875-0.64062 1.0156-1.25h0.73438v9.3438z" fill="#000"/>
  <path d="m598.27 26.504h99.78v37.543h-99.78z" fill="#cfe2f3"/>
  <path d="m631.56 49.247q-0.625 0.53125-1.2188 0.76562-0.57812 0.21875-1.25 0.21875-1.125 0-1.7188-0.54688-0.59375-0.54688-0.59375-1.3906 0-0.48438 0.21875-0.89062 0.23438-0.42188 0.59375-0.67188 0.375-0.25 0.82812-0.375 0.32812-0.078125 1.0156-0.17188 1.375-0.15625 2.0312-0.39062 0.015625-0.23438 0.015625-0.29688 0-0.70312-0.32812-0.98438-0.4375-0.39062-1.2969-0.39062-0.8125 0-1.2031 0.28125-0.375 0.28125-0.5625 1l-1.1094-0.14062q0.14062-0.71875 0.48438-1.1562 0.35938-0.45312 1.0156-0.6875 0.67188-0.23438 1.5312-0.23438 0.875 0 1.4062 0.20312 0.54688 0.20312 0.79688 0.51562 0.25 0.29688 0.35938 0.76562 0.046875 0.29688 0.046875 1.0625v1.5156q0 1.5938 0.078125 2.0156 0.078125 0.42188 0.28125 0.8125h-1.1875q-0.17188-0.35938-0.23438-0.82812zm-0.09375-2.5625q-0.625 0.26562-1.8594 0.4375-0.70312 0.10938-1 0.23438t-0.45312 0.375q-0.15625 0.23438-0.15625 0.53125 0 0.45312 0.34375 0.76562 0.34375 0.29688 1.0156 0.29688 0.65625 0 1.1719-0.28125 0.51562-0.29688 0.76562-0.79688 0.17188-0.375 0.17188-1.1406v-0.42188zm3.1156 5.9688v-9.3125h1.0312v0.875q0.375-0.51562 0.82812-0.76562 0.46875-0.26562 1.1406-0.26562 0.85938 0 1.5156 0.45312 0.65625 0.4375 0.98438 1.25 0.34375 0.79688 0.34375 1.7656 0 1.0312-0.375 1.8594-0.35938 0.82812-1.0781 1.2812-0.70312 0.4375-1.4844 0.4375-0.5625 0-1.0156-0.23438-0.45312-0.25-0.75-0.625v3.2812h-1.1406zm1.0312-5.9062q0 1.2969 0.53125 1.9219t1.2656 0.625q0.76562 0 1.3125-0.64062 0.54688-0.65625 0.54688-2 0-1.2969-0.53125-1.9375-0.53125-0.64062-1.2656-0.64062-0.73438 0-1.2969 0.6875-0.5625 0.67188-0.5625 1.9844zm6.3812-4.6562v-1.3281h1.1406v1.3281h-1.1406zm0 7.9844v-6.7344h1.1406v6.7344h-1.1406zm6.2109-2.7969v-1.1406h3.5156v1.1406h-3.5156zm10.469 2.7969l-2.5625-6.7344h1.2031l1.4375 4.0312q0.23438 0.65625 0.4375 1.3594 0.15625-0.53125 0.42188-1.2812l1.5-4.1094h1.1719l-2.5469 6.7344h-1.0625zm8.7734 0h-1.1406v-7.2812q-0.42188 0.39062-1.0938 0.79688-0.65625 0.39062-1.1875 0.57812v-1.1094q0.95312-0.4375 1.6719-1.0781 0.71875-0.64062 1.0156-1.25h0.73438v9.3438z" fill="#000"/>
  <path d="m311.18 73.622h99.78v37.543h-99.78z" fill="#cfe2f3"/>
  <path d="m324.78 97.194v-5.8594h-1v-0.875h1v-0.71875q0-0.6875 0.125-1.0156 0.17188-0.4375 0.57812-0.71875 0.42188-0.28125 1.1719-0.28125 0.48438 0 1.0625 0.125l-0.17188 0.98438q-0.35938-0.0625-0.67188-0.0625-0.51562 0-0.73438 0.23438-0.21875 0.21875-0.21875 0.82812v0.625h1.3125v0.875h-1.3125v5.8594h-1.1406zm3.4217 0v-6.7344h1.0312v1.0156q0.39062-0.71875 0.71875-0.9375 0.34375-0.23438 0.73438-0.23438 0.57812 0 1.1719 0.35938l-0.39062 1.0625q-0.42188-0.25-0.82812-0.25-0.375 0-0.6875 0.23438-0.29688 0.21875-0.42188 0.625-0.1875 0.60938-0.1875 1.3281v3.5312h-1.1406zm4.0321-3.375q0-1.875 1.0312-2.7656 0.875-0.75 2.125-0.75 1.3906 0 2.2656 0.90625 0.89062 0.90625 0.89062 2.5156 0 1.2969-0.39062 2.0469t-1.1406 1.1719q-0.75 0.40625-1.625 0.40625-1.4219 0-2.2969-0.90625-0.85938-0.90625-0.85938-2.625zm1.1719 0q0 1.2969 0.5625 1.9531 0.5625 0.64062 1.4219 0.64062 0.84375 0 1.4062-0.64062 0.57812-0.65625 0.57812-1.9844 0-1.25-0.57812-1.8906-0.5625-0.65625-1.4062-0.65625-0.85938 0-1.4219 0.64062-0.5625 0.64062-0.5625 1.9375zm6.6625 3.375v-6.7344h1.0312v0.95312q0.73438-1.1094 2.1406-1.1094 0.60938 0 1.1094 0.21875 0.51562 0.21875 0.76562 0.57812 0.26562 0.34375 0.35938 0.84375 0.0625 0.3125 0.0625 1.1094v4.1406h-1.1406v-4.0938q0-0.70312-0.14062-1.0469-0.125-0.34375-0.46875-0.54688-0.32812-0.21875-0.78125-0.21875-0.73438 0-1.2656 0.46875-0.53125 0.45312-0.53125 1.75v3.6875h-1.1406zm9.9125-1.0156l0.15625 1q-0.48438 0.10938-0.85938 0.10938-0.625 0-0.96875-0.20312t-0.48438-0.51562q-0.14062-0.32812-0.14062-1.3438v-3.8906h-0.82812v-0.875h0.82812v-1.6719l1.1406-0.6875v2.3594h1.1562v0.875h-1.1562v3.9531q0 0.48438 0.0625 0.625t0.1875 0.21875q0.14062 0.078125 0.39062 0.078125 0.20312 0 0.51562-0.03125zm5.8123-1.1562l1.1875 0.14062q-0.28125 1.0469-1.0469 1.625-0.75 0.5625-1.9219 0.5625-1.4844 0-2.3594-0.90625-0.85938-0.92188-0.85938-2.5625 0-1.7031 0.875-2.6406 0.89062-0.9375 2.2812-0.9375 1.3594 0 2.2031 0.92188 0.85938 0.92188 0.85938 2.5781 0 0.10938 0 0.3125h-5.0312q0.0625 1.1094 0.625 1.7031 0.5625 0.59375 1.4062 0.59375 0.64062 0 1.0781-0.32812 0.45312-0.34375 0.70312-1.0625zm-3.75-1.8438h3.7656q-0.078125-0.85938-0.4375-1.2812-0.54688-0.65625-1.4062-0.65625-0.79688 0-1.3281 0.53125-0.53125 0.51562-0.59375 1.4062zm6.5531 4.0156v-6.7344h1.0312v0.95312q0.73438-1.1094 2.1406-1.1094 0.60938 0 1.1094 0.21875 0.51562 0.21875 0.76562 0.57812 0.26562 0.34375 0.35938 0.84375 0.0625 0.3125 0.0625 1.1094v4.1406h-1.1406v-4.0938q0-0.70312-0.14062-1.0469-0.125-0.34375-0.46875-0.54688-0.32812-0.21875-0.78125-0.21875-0.73438 0-1.2656 0.46875-0.53125 0.45312-0.53125 1.75v3.6875h-1.1406zm11.787 0v-0.84375q-0.64062 1-1.8906 1-0.79688 0-1.4844-0.4375-0.67188-0.45312-1.0469-1.25-0.375-0.79688-0.375-1.8281 0-1.0156 0.34375-1.8281 0.34375-0.82812 1.0156-1.2656 0.67188-0.4375 1.5-0.4375 0.60938 0 1.0781 0.26562 0.48438 0.25 0.78125 0.65625v-3.3438h1.1406v9.3125h-1.0625zm-3.6094-3.3594q0 1.2969 0.53125 1.9375 0.54688 0.64062 1.2969 0.64062 0.75 0 1.2656-0.60938 0.53125-0.625 0.53125-1.875 0-1.3906-0.53125-2.0312-0.53125-0.65625-1.3125-0.65625-0.76562 0-1.2812 0.625-0.5 0.625-0.5 1.9688zm9.8967 0.5625v-1.1406h3.5156v1.1406h-3.5156zm10.469 2.7969l-2.5625-6.7344h1.2031l1.4375 4.0312q0.23438 0.65625 0.4375 1.3594 0.15625-0.53125 0.42188-1.2812l1.5-4.1094h1.1719l-2.5469 6.7344h-1.0625zm8.7734 0h-1.1406v-7.2812q-0.42188 0.39062-1.0938 0.79688-0.65625 0.39062-1.1875 0.57812v-1.1094q0.95312-0.4375 1.6719-1.0781 0.71875-0.64062 1.0156-1.25h0.73438v9.3438z" fill="#000"/>
  <path d="m598.27 73.622h99.78v37.543h-99.78z" fill="#cfe2f3"/>
  <path d="m631.56 96.366q-0.625 0.53125-1.2188 0.76562-0.57812 0.21875-1.25 0.21875-1.125 0-1.7188-0.54688-0.59375-0.54688-0.59375-1.3906 0-0.48438 0.21875-0.89062 0.23438-0.42188 0.59375-0.67188 0.375-0.25 0.82812-0.375 0.32812-0.078125 1.0156-0.17188 1.375-0.15625 2.0312-0.39062 0.015625-0.23438 0.015625-0.29688 0-0.70312-0.32812-0.98438-0.4375-0.39062-1.2969-0.39062-0.8125 0-1.2031 0.28125-0.375 0.28125-0.5625 1l-1.1094-0.14062q0.14062-0.71875 0.48438-1.1562 0.35938-0.45312 1.0156-0.6875 0.67188-0.23438 1.5312-0.23438 0.875 0 1.4062 0.20312 0.54688 0.20312 0.79688 0.51562 0.25 0.29688 0.35938 0.76562 0.046875 0.29688 0.046875 1.0625v1.5156q0 1.5938 0.078125 2.0156 0.078125 0.42188 0.28125 0.8125h-1.1875q-0.17188-0.35938-0.23438-0.82812zm-0.09375-2.5625q-0.625 0.26562-1.8594 0.4375-0.70312 0.10938-1 0.23438t-0.45312 0.375q-0.15625 0.23438-0.15625 0.53125 0 0.45312 0.34375 0.76562 0.34375 0.29688 1.0156 0.29688 0.65625 0 1.1719-0.28125 0.51562-0.29688 0.76562-0.79688 0.17188-0.375 0.17188-1.1406v-0.42188zm3.1156 5.9688v-9.3125h1.0312v0.875q0.375-0.51562 0.82812-0.76562 0.46875-0.26562 1.1406-0.26562 0.85938 0 1.5156 0.45312 0.65625 0.4375 0.98438 1.25 0.34375 0.79688 0.34375 1.7656 0 1.0312-0.375 1.8594-0.35938 0.82812-1.0781 1.2812-0.70312 0.4375-1.4844 0.4375-0.5625 0-1.0156-0.23438-0.45312-0.25-0.75-0.625v3.2812h-1.1406zm1.0312-5.9062q0 1.2969 0.53125 1.9219t1.2656 0.625q0.76562 0 1.3125-0.64062 0.54688-0.65625 0.54688-2 0-1.2969-0.53125-1.9375-0.53125-0.64062-1.2656-0.64062-0.73438 0-1.2969 0.6875-0.5625 0.67188-0.5625 1.9844zm6.3812-4.6562v-1.3281h1.1406v1.3281h-1.1406zm0 7.9844v-6.7344h1.1406v6.7344h-1.1406zm6.2109-2.7969v-1.1406h3.5156v1.1406h-3.5156zm10.469 2.7969l-2.5625-6.7344h1.2031l1.4375 4.0312q0.23438 0.65625 0.4375 1.3594 0.15625-0.53125 0.42188-1.2812l1.5-4.1094h1.1719l-2.5469 6.7344h-1.0625zm8.7734 0h-1.1406v-7.2812q-0.42188 0.39062-1.0938 0.79688-0.65625 0.39062-1.1875 0.57812v-1.1094q0.95312-0.4375 1.6719-1.0781 0.71875-0.64062 1.0156-1.25h0.73438v9.3438z" fill="#000"/>
  <path d="m311.18 149.71h99.78v37.543h-99.78z" fill="#d9ead3"/>
  <path d="m324.78 173.28v-5.8594h-1v-0.875h1v-0.71875q0-0.6875 0.125-1.0156 0.17188-0.4375 0.57812-0.71875 0.42188-0.28125 1.1719-0.28125 0.48438 0 1.0625 0.125l-0.17188 0.98438q-0.35938-0.0625-0.67188-0.0625-0.51562 0-0.73438 0.23438-0.21875 0.21875-0.21875 0.82812v0.625h1.3125v0.875h-1.3125v5.8594h-1.1406zm3.4217 0v-6.7344h1.0312v1.0156q0.39062-0.71875 0.71875-0.9375 0.34375-0.23438 0.73438-0.23438 0.57812 0 1.1719 0.35938l-0.39062 1.0625q-0.42188-0.25-0.82812-0.25-0.375 0-0.6875 0.23438-0.29688 0.21875-0.42188 0.625-0.1875 0.60938-0.1875 1.3281v3.5312h-1.1406zm4.0321-3.375q0-1.875 1.0312-2.7656 0.875-0.75 2.125-0.75 1.3906 0 2.2656 0.90625 0.89062 0.90625 0.89062 2.5156 0 1.2969-0.39062 2.0469t-1.1406 1.1719q-0.75 0.40625-1.625 0.40625-1.4219 0-2.2969-0.90625-0.85938-0.90625-0.85938-2.625zm1.1719 0q0 1.2969 0.5625 1.9531 0.5625 0.64062 1.4219 0.64062 0.84375 0 1.4062-0.64062 0.57812-0.65625 0.57812-1.9844 0-1.25-0.57812-1.8906-0.5625-0.65625-1.4062-0.65625-0.85938 0-1.4219 0.64062-0.5625 0.64062-0.5625 1.9375zm6.6625 3.375v-6.7344h1.0312v0.95312q0.73438-1.1094 2.1406-1.1094 0.60938 0 1.1094 0.21875 0.51562 0.21875 0.76562 0.57812 0.26562 0.34375 0.35938 0.84375 0.0625 0.3125 0.0625 1.1094v4.1406h-1.1406v-4.0938q0-0.70312-0.14062-1.0469-0.125-0.34375-0.46875-0.54688-0.32812-0.21875-0.78125-0.21875-0.73438 0-1.2656 0.46875-0.53125 0.45312-0.53125 1.75v3.6875h-1.1406zm9.9125-1.0156l0.15625 1q-0.48438 0.10938-0.85938 0.10938-0.625 0-0.96875-0.20312t-0.48438-0.51562q-0.14062-0.32812-0.14062-1.3438v-3.8906h-0.82812v-0.875h0.82812v-1.6719l1.1406-0.6875v2.3594h1.1562v0.875h-1.1562v3.9531q0 0.48438 0.0625 0.625t0.1875 0.21875q0.14062 0.078125 0.39062 0.078125 0.20312 0 0.51562-0.03125zm5.8123-1.1562l1.1875 0.14062q-0.28125 1.0469-1.0469 1.625-0.75 0.5625-1.9219 0.5625-1.4844 0-2.3594-0.90625-0.85938-0.92188-0.85938-2.5625 0-1.7031 0.875-2.6406 0.89062-0.9375 2.2812-0.9375 1.3594 0 2.2031 0.92188 0.85938 0.92188 0.85938 2.5781 0 0.10938 0 0.3125h-5.0312q0.0625 1.1094 0.625 1.7031 0.5625 0.59375 1.4062 0.59375 0.64062 0 1.0781-0.32812 0.45312-0.34375 0.70312-1.0625zm-3.75-1.8438h3.7656q-0.078125-0.85938-0.4375-1.2812-0.54688-0.65625-1.4062-0.65625-0.79688 0-1.3281 0.53125-0.53125 0.51562-0.59375 1.4062zm6.5531 4.0156v-6.7344h1.0312v0.95312q0.73438-1.1094 2.1406-1.1094 0.60938 0 1.1094 0.21875 0.51562 0.21875 0.76562 0.57812 0.26562 0.34375 0.35938 0.84375 0.0625 0.3125 0.0625 1.1094v4.1406h-1.1406v-4.0938q0-0.70312-0.14062-1.0469-0.125-0.34375-0.46875-0.54688-0.32812-0.21875-0.78125-0.21875-0.73438 0-1.2656 0.46875-0.53125 0.45312-0.53125 1.75v3.6875h-1.1406zm11.787 0v-0.84375q-0.64062 1-1.8906 1-0.79688 0-1.4844-0.4375-0.67188-0.45312-1.0469-1.25-0.375-0.79688-0.375-1.8281 0-1.0156 0.34375-1.8281 0.34375-0.82812 1.0156-1.2656 0.67188-0.4375 1.5-0.4375 0.60938 0 1.0781 0.26562 0.48438 0.25 0.78125 0.65625v-3.3438h1.1406v9.3125h-1.0625zm-3.6094-3.3594q0 1.2969 0.53125 1.9375 0.54688 0.64062 1.2969 0.64062 0.75 0 1.2656-0.60938 0.53125-0.625 0.53125-1.875 0-1.3906-0.53125-2.0312-0.53125-0.65625-1.3125-0.65625-0.76562 0-1.2812 0.625-0.5 0.625-0.5 1.9688zm9.8967 0.5625v-1.1406h3.5156v1.1406h-3.5156z" fill="#000"/>
  <path d="m387.14 173.28l-2.5625-6.7344h1.2031l1.4375 4.0312q0.23438 0.65625 0.4375 1.3594 0.15625-0.53125 0.42188-1.2812l1.5-4.1094h1.1719l-2.5469 6.7344h-1.0625zm10.477-1.0938v1.0938h-6.1562q-0.015625-0.40625 0.14062-0.79688 0.23438-0.625 0.75-1.2344 0.51562-0.60938 1.5-1.4062 1.5156-1.25 2.0469-1.9688 0.53125-0.73438 0.53125-1.375 0-0.6875-0.48438-1.1406-0.48438-0.46875-1.2656-0.46875-0.82812 0-1.3281 0.5-0.48438 0.48438-0.5 1.3594l-1.1719-0.125q0.125-1.3125 0.90625-2t2.1094-0.6875q1.3438 0 2.125 0.75 0.78125 0.73438 0.78125 1.8281 0 0.5625-0.23438 1.1094-0.21875 0.53125-0.75 1.1406-0.53125 0.59375-1.7656 1.625-1.0312 0.85938-1.3281 1.1719-0.28125 0.3125-0.46875 0.625h4.5625z" fill="#f00"/>
  <path d="m311.18 196.83h99.78v37.543h-99.78z" fill="#d9ead3"/>
  <path d="m324.78 220.4v-5.8594h-1v-0.875h1v-0.71875q0-0.6875 0.125-1.0156 0.17188-0.4375 0.57812-0.71875 0.42188-0.28125 1.1719-0.28125 0.48438 0 1.0625 0.125l-0.17188 0.98438q-0.35938-0.0625-0.67188-0.0625-0.51562 0-0.73438 0.23438-0.21875 0.21875-0.21875 0.82812v0.625h1.3125v0.875h-1.3125v5.8594h-1.1406zm3.4217 0v-6.7344h1.0312v1.0156q0.39062-0.71875 0.71875-0.9375 0.34375-0.23438 0.73438-0.23438 0.57812 0 1.1719 0.35938l-0.39062 1.0625q-0.42188-0.25-0.82812-0.25-0.375 0-0.6875 0.23438-0.29688 0.21875-0.42188 0.625-0.1875 0.60938-0.1875 1.3281v3.5312h-1.1406zm4.0321-3.375q0-1.875 1.0312-2.7656 0.875-0.75 2.125-0.75 1.3906 0 2.2656 0.90625 0.89062 0.90625 0.89062 2.5156 0 1.2969-0.39062 2.0469t-1.1406 1.1719q-0.75 0.40625-1.625 0.40625-1.4219 0-2.2969-0.90625-0.85938-0.90625-0.85938-2.625zm1.1719 0q0 1.2969 0.5625 1.9531 0.5625 0.64062 1.4219 0.64062 0.84375 0 1.4062-0.64062 0.57812-0.65625 0.57812-1.9844 0-1.25-0.57812-1.8906-0.5625-0.65625-1.4062-0.65625-0.85938 0-1.4219 0.64062-0.5625 0.64062-0.5625 1.9375zm6.6625 3.375v-6.7344h1.0312v0.95312q0.73438-1.1094 2.1406-1.1094 0.60938 0 1.1094 0.21875 0.51562 0.21875 0.76562 0.57812 0.26562 0.34375 0.35938 0.84375 0.0625 0.3125 0.0625 1.1094v4.1406h-1.1406v-4.0938q0-0.70312-0.14062-1.0469-0.125-0.34375-0.46875-0.54688-0.32812-0.21875-0.78125-0.21875-0.73438 0-1.2656 0.46875-0.53125 0.45312-0.53125 1.75v3.6875h-1.1406zm9.9125-1.0156l0.15625 1q-0.48438 0.10938-0.85938 0.10938-0.625 0-0.96875-0.20312t-0.48438-0.51562q-0.14062-0.32812-0.14062-1.3438v-3.8906h-0.82812v-0.875h0.82812v-1.6719l1.1406-0.6875v2.3594h1.1562v0.875h-1.1562v3.9531q0 0.48438 0.0625 0.625t0.1875 0.21875q0.14062 0.078125 0.39062 0.078125 0.20312 0 0.51562-0.03125zm5.8123-1.1562l1.1875 0.14062q-0.28125 1.0469-1.0469 1.625-0.75 0.5625-1.9219 0.5625-1.4844 0-2.3594-0.90625-0.85938-0.92188-0.85938-2.5625 0-1.7031 0.875-2.6406 0.89062-0.9375 2.2812-0.9375 1.3594 0 2.2031 0.92188 0.85938 0.92188 0.85938 2.5781 0 0.10938 0 0.3125h-5.0312q0.0625 1.1094 0.625 1.7031 0.5625 0.59375 1.4062 0.59375 0.64062 0 1.0781-0.32812 0.45312-0.34375 0.70312-1.0625zm-3.75-1.8438h3.7656q-0.078125-0.85938-0.4375-1.2812-0.54688-0.65625-1.4062-0.65625-0.79688 0-1.3281 0.53125-0.53125 0.51562-0.59375 1.4062zm6.5531 4.0156v-6.7344h1.0312v0.95312q0.73438-1.1094 2.1406-1.1094 0.60938 0 1.1094 0.21875 0.51562 0.21875 0.76562 0.57812 0.26562 0.34375 0.35938 0.84375 0.0625 0.3125 0.0625 1.1094v4.1406h-1.1406v-4.0938q0-0.70312-0.14062-1.0469-0.125-0.34375-0.46875-0.54688-0.32812-0.21875-0.78125-0.21875-0.73438 0-1.2656 0.46875-0.53125 0.45312-0.53125 1.75v3.6875h-1.1406zm11.787 0v-0.84375q-0.64062 1-1.8906 1-0.79688 0-1.4844-0.4375-0.67188-0.45312-1.0469-1.25-0.375-0.79688-0.375-1.8281 0-1.0156 0.34375-1.8281 0.34375-0.82812 1.0156-1.2656 0.67188-0.4375 1.5-0.4375 0.60938 0 1.0781 0.26562 0.48438 0.25 0.78125 0.65625v-3.3438h1.1406v9.3125h-1.0625zm-3.6094-3.3594q0 1.2969 0.53125 1.9375 0.54688 0.64062 1.2969 0.64062 0.75 0 1.2656-0.60938 0.53125-0.625 0.53125-1.875 0-1.3906-0.53125-2.0312-0.53125-0.65625-1.3125-0.65625-0.76562 0-1.2812 0.625-0.5 0.625-0.5 1.9688zm9.8967 0.5625v-1.1406h3.5156v1.1406h-3.5156z" fill="#000"/>
  <path d="m387.14 220.4l-2.5625-6.7344h1.2031l1.4375 4.0312q0.23438 0.65625 0.4375 1.3594 0.15625-0.53125 0.42188-1.2812l1.5-4.1094h1.1719l-2.5469 6.7344h-1.0625zm10.477-1.0938v1.0938h-6.1562q-0.015625-0.40625 0.14062-0.79688 0.23438-0.625 0.75-1.2344 0.51562-0.60938 1.5-1.4062 1.5156-1.25 2.0469-1.9688 0.53125-0.73438 0.53125-1.375 0-0.6875-0.48438-1.1406-0.48438-0.46875-1.2656-0.46875-0.82812 0-1.3281 0.5-0.48438 0.48438-0.5 1.3594l-1.1719-0.125q0.125-1.3125 0.90625-2t2.1094-0.6875q1.3438 0 2.125 0.75 0.78125 0.73438 0.78125 1.8281 0 0.5625-0.23438 1.1094-0.21875 0.53125-0.75 1.1406-0.53125 0.59375-1.7656 1.625-1.0312 0.85938-1.3281 1.1719-0.28125 0.3125-0.46875 0.625h4.5625z" fill="#f00"/>
  <path d="m598.27 149.71h99.78v37.543h-99.78z" fill="#d9ead3"/>
  <path d="m631.56 172.45q-0.625 0.53125-1.2188 0.76562-0.57812 0.21875-1.25 0.21875-1.125 0-1.7188-0.54688-0.59375-0.54688-0.59375-1.3906 0-0.48438 0.21875-0.89062 0.23438-0.42188 0.59375-0.67188 0.375-0.25 0.82812-0.375 0.32812-0.078125 1.0156-0.17188 1.375-0.15625 2.0312-0.39062 0.015625-0.23438 0.015625-0.29688 0-0.70312-0.32812-0.98438-0.4375-0.39062-1.2969-0.39062-0.8125 0-1.2031 0.28125-0.375 0.28125-0.5625 1l-1.1094-0.14062q0.14062-0.71875 0.48438-1.1562 0.35938-0.45312 1.0156-0.6875 0.67188-0.23438 1.5312-0.23438 0.875 0 1.4062 0.20312 0.54688 0.20312 0.79688 0.51562 0.25 0.29688 0.35938 0.76562 0.046875 0.29688 0.046875 1.0625v1.5156q0 1.5938 0.078125 2.0156 0.078125 0.42188 0.28125 0.8125h-1.1875q-0.17188-0.35938-0.23438-0.82812zm-0.09375-2.5625q-0.625 0.26562-1.8594 0.4375-0.70312 0.10938-1 0.23438t-0.45312 0.375q-0.15625 0.23438-0.15625 0.53125 0 0.45312 0.34375 0.76562 0.34375 0.29688 1.0156 0.29688 0.65625 0 1.1719-0.28125 0.51562-0.29688 0.76562-0.79688 0.17188-0.375 0.17188-1.1406v-0.42188zm3.1156 5.9688v-9.3125h1.0312v0.875q0.375-0.51562 0.82812-0.76562 0.46875-0.26562 1.1406-0.26562 0.85938 0 1.5156 0.45312 0.65625 0.4375 0.98438 1.25 0.34375 0.79688 0.34375 1.7656 0 1.0312-0.375 1.8594-0.35938 0.82812-1.0781 1.2812-0.70312 0.4375-1.4844 0.4375-0.5625 0-1.0156-0.23438-0.45312-0.25-0.75-0.625v3.2812h-1.1406zm1.0312-5.9062q0 1.2969 0.53125 1.9219t1.2656 0.625q0.76562 0 1.3125-0.64062 0.54688-0.65625 0.54688-2 0-1.2969-0.53125-1.9375-0.53125-0.64062-1.2656-0.64062-0.73438 0-1.2969 0.6875-0.5625 0.67188-0.5625 1.9844zm6.3812-4.6562v-1.3281h1.1406v1.3281h-1.1406zm0 7.9844v-6.7344h1.1406v6.7344h-1.1406zm6.2109-2.7969v-1.1406h3.5156v1.1406h-3.5156z" fill="#000"/>
  <path d="m658.67 173.28l-2.5625-6.7344h1.2031l1.4375 4.0312q0.23438 0.65625 0.4375 1.3594 0.15625-0.53125 0.42188-1.2812l1.5-4.1094h1.1719l-2.5469 6.7344h-1.0625zm10.477-1.0938v1.0938h-6.1562q-0.015625-0.40625 0.14062-0.79688 0.23438-0.625 0.75-1.2344 0.51562-0.60938 1.5-1.4062 1.5156-1.25 2.0469-1.9688 0.53125-0.73438 0.53125-1.375 0-0.6875-0.48438-1.1406-0.48438-0.46875-1.2656-0.46875-0.82812 0-1.3281 0.5-0.48438 0.48438-0.5 1.3594l-1.1719-0.125q0.125-1.3125 0.90625-2t2.1094-0.6875q1.3438 0 2.125 0.75 0.78125 0.73438 0.78125 1.8281 0 0.5625-0.23438 1.1094-0.21875 0.53125-0.75 1.1406-0.53125 0.59375-1.7656 1.625-1.0312 0.85938-1.3281 1.1719-0.28125 0.3125-0.46875 0.625h4.5625z" fill="#f00"/>
  <path d="m598.27 196.83h99.78v37.543h-99.78z" fill="#d9ead3"/>
  <path d="m631.56 219.57q-0.625 0.53125-1.2188 0.76562-0.57812 0.21875-1.25 0.21875-1.125 0-1.7188-0.54688-0.59375-0.54688-0.59375-1.3906 0-0.48438 0.21875-0.89062 0.23438-0.42188 0.59375-0.67188 0.375-0.25 0.82812-0.375 0.32812-0.078125 1.0156-0.17188 1.375-0.15625 2.0312-0.39062 0.015625-0.23438 0.015625-0.29688 0-0.70312-0.32812-0.98438-0.4375-0.39062-1.2969-0.39062-0.8125 0-1.2031 0.28125-0.375 0.28125-0.5625 1l-1.1094-0.14062q0.14062-0.71875 0.48438-1.1562 0.35938-0.45312 1.0156-0.6875 0.67188-0.23438 1.5312-0.23438 0.875 0 1.4062 0.20312 0.54688 0.20312 0.79688 0.51562 0.25 0.29688 0.35938 0.76562 0.046875 0.29688 0.046875 1.0625v1.5156q0 1.5938 0.078125 2.0156 0.078125 0.42188 0.28125 0.8125h-1.1875q-0.17188-0.35938-0.23438-0.82812zm-0.09375-2.5625q-0.625 0.26562-1.8594 0.4375-0.70312 0.10938-1 0.23438t-0.45312 0.375q-0.15625 0.23438-0.15625 0.53125 0 0.45312 0.34375 0.76562 0.34375 0.29688 1.0156 0.29688 0.65625 0 1.1719-0.28125 0.51562-0.29688 0.76562-0.79688 0.17188-0.375 0.17188-1.1406v-0.42188zm3.1156 5.9688v-9.3125h1.0312v0.875q0.375-0.51562 0.82812-0.76562 0.46875-0.26562 1.1406-0.26562 0.85938 0 1.5156 0.45312 0.65625 0.4375 0.98438 1.25 0.34375 0.79688 0.34375 1.7656 0 1.0312-0.375 1.8594-0.35938 0.82812-1.0781 1.2812-0.70312 0.4375-1.4844 0.4375-0.5625 0-1.0156-0.23438-0.45312-0.25-0.75-0.625v3.2812h-1.1406zm1.0312-5.9062q0 1.2969 0.53125 1.9219t1.2656 0.625q0.76562 0 1.3125-0.64062 0.54688-0.65625 0.54688-2 0-1.2969-0.53125-1.9375-0.53125-0.64062-1.2656-0.64062-0.73438 0-1.2969 0.6875-0.5625 0.67188-0.5625 1.9844zm6.3812-4.6562v-1.3281h1.1406v1.3281h-1.1406zm0 7.9844v-6.7344h1.1406v6.7344h-1.1406zm6.2109-2.7969v-1.1406h3.5156v1.1406h-3.5156z" fill="#000"/>
  <path d="m658.67 220.4l-2.5625-6.7344h1.2031l1.4375 4.0312q0.23438 0.65625 0.4375 1.3594 0.15625-0.53125 0.42188-1.2812l1.5-4.1094h1.1719l-2.5469 6.7344h-1.0625zm10.477-1.0938v1.0938h-6.1562q-0.015625-0.40625 0.14062-0.79688 0.23438-0.625 0.75-1.2344 0.51562-0.60938 1.5-1.4062 1.5156-1.25 2.0469-1.9688 0.53125-0.73438 0.53125-1.375 0-0.6875-0.48438-1.1406-0.48438-0.46875-1.2656-0.46875-0.82812 0-1.3281 0.5-0.48438 0.48438-0.5 1.3594l-1.1719-0.125q0.125-1.3125 0.90625-2t2.1094-0.6875q1.3438 0 2.125 0.75 0.78125 0.73438 0.78125 1.8281 0 0.5625-0.23438 1.1094-0.21875 0.53125-0.75 1.1406-0.53125 0.59375-1.7656 1.625-1.0312 0.85938-1.3281 1.1719-0.28125 0.3125-0.46875 0.625h4.5625z" fill="#f00"/>
  <path d="m807.21 95.217c0-8.378 21.138-15.17 47.214-15.17s47.214 6.7917 47.214 15.17v60.679c0 8.378-21.138 15.17-47.214 15.17s-47.214-6.7917-47.214-15.17z" fill="#ccc"/>
  <path fill-opacity="0" d="m901.64 95.217c0 8.378-21.138 15.17-47.214 15.17s-47.214-6.7917-47.214-15.17" fill="#000"/>
  <path fill-opacity="0" d="m807.21 95.217c0-8.378 21.138-15.17 47.214-15.17s47.214 6.7917 47.214 15.17v60.679c0 8.378-21.138 15.17-47.214 15.17s-47.214-6.7917-47.214-15.17z" fill="#000"/>
  <path stroke-linejoin="round" d="m901.64 95.217c0 8.378-21.138 15.17-47.214 15.17s-47.214-6.7917-47.214-15.17" stroke="#000" stroke-linecap="butt"/>
  <path stroke-linejoin="round" d="m807.21 95.217c0-8.378 21.138-15.17 47.214-15.17s47.214 6.7917 47.214 15.17v60.679c0 8.378-21.138 15.17-47.214 15.17s-47.214-6.7917-47.214-15.17z" stroke="#000" stroke-linecap="butt"/>
  <path d="m826.9 137.94v-9.3125h3.2031q1.0938 0 1.6562 0.14062 0.8125 0.1875 1.375 0.67188 0.73438 0.60938 1.0938 1.5781 0.375 0.96875 0.375 2.2188 0 1.0625-0.25 1.8906-0.25 0.8125-0.64062 1.3438-0.39062 0.53125-0.85938 0.84375-0.45312 0.3125-1.1094 0.46875-0.64062 0.15625-1.4844 0.15625h-3.3594zm1.2344-1.0938h1.9844q0.92188 0 1.4375-0.17188 0.53125-0.17188 0.84375-0.48438 0.4375-0.4375 0.67188-1.1719 0.25-0.75 0.25-1.7969 0-1.4688-0.48438-2.25-0.46875-0.78125-1.1562-1.0469-0.5-0.1875-1.5938-0.1875h-1.9531v7.1094zm12.641 0.26562q-0.625 0.53125-1.2188 0.76562-0.57812 0.21875-1.25 0.21875-1.125 0-1.7188-0.54688-0.59375-0.54688-0.59375-1.3906 0-0.48438 0.21875-0.89062 0.23438-0.42188 0.59375-0.67188 0.375-0.25 0.82812-0.375 0.32812-0.078125 1.0156-0.17188 1.375-0.15625 2.0312-0.39062 0.015625-0.23438 0.015625-0.29688 0-0.70312-0.32812-0.98438-0.4375-0.39062-1.2969-0.39062-0.8125 0-1.2031 0.28125-0.375 0.28125-0.5625 1l-1.1094-0.14062q0.14062-0.71875 0.48438-1.1562 0.35938-0.45312 1.0156-0.6875 0.67188-0.23438 1.5312-0.23438 0.875 0 1.4062 0.20312 0.54688 0.20312 0.79688 0.51562 0.25 0.29688 0.35938 0.76562 0.046875 0.29688 0.046875 1.0625v1.5156q0 1.5938 0.078125 2.0156 0.078125 0.42188 0.28125 0.8125h-1.1875q-0.17188-0.35938-0.23438-0.82812zm-0.09375-2.5625q-0.625 0.26562-1.8594 0.4375-0.70312 0.10938-1 0.23438t-0.45312 0.375q-0.15625 0.23438-0.15625 0.53125 0 0.45312 0.34375 0.76562 0.34375 0.29688 1.0156 0.29688 0.65625 0 1.1719-0.28125 0.51562-0.29688 0.76562-0.79688 0.17188-0.375 0.17188-1.1406v-0.42188zm5.6156 2.375l0.15625 1q-0.48438 0.10938-0.85938 0.10938-0.625 0-0.96875-0.20312t-0.48438-0.51562q-0.14062-0.32812-0.14062-1.3438v-3.8906h-0.82812v-0.875h0.82812v-1.6719l1.1406-0.6875v2.3594h1.1562v0.875h-1.1562v3.9531q0 0.48438 0.0625 0.625t0.1875 0.21875q0.14062 0.078125 0.39062 0.078125 0.20312 0 0.51562-0.03125zm5.5936 0.1875q-0.625 0.53125-1.2188 0.76562-0.57812 0.21875-1.25 0.21875-1.125 0-1.7188-0.54688-0.59375-0.54688-0.59375-1.3906 0-0.48438 0.21875-0.89062 0.23438-0.42188 0.59375-0.67188 0.375-0.25 0.82812-0.375 0.32812-0.078125 1.0156-0.17188 1.375-0.15625 2.0312-0.39062 0.015625-0.23438 0.015625-0.29688 0-0.70312-0.32812-0.98438-0.4375-0.39062-1.2969-0.39062-0.8125 0-1.2031 0.28125-0.375 0.28125-0.5625 1l-1.1094-0.14062q0.14062-0.71875 0.48438-1.1562 0.35938-0.45312 1.0156-0.6875 0.67188-0.23438 1.5312-0.23438 0.875 0 1.4062 0.20312 0.54688 0.20312 0.79688 0.51562 0.25 0.29688 0.35938 0.76562 0.046875 0.29688 0.046875 1.0625v1.5156q0 1.5938 0.078125 2.0156 0.078125 0.42188 0.28125 0.8125h-1.1875q-0.17188-0.35938-0.23438-0.82812zm-0.09375-2.5625q-0.625 0.26562-1.8594 0.4375-0.70312 0.10938-1 0.23438t-0.45312 0.375q-0.15625 0.23438-0.15625 0.53125 0 0.45312 0.34375 0.76562 0.34375 0.29688 1.0156 0.29688 0.65625 0 1.1719-0.28125 0.51562-0.29688 0.76562-0.79688 0.17188-0.375 0.17188-1.1406v-0.42188zm4.1625 3.3906h-1.0625v-9.3125h1.1562v3.3281q0.71875-0.90625 1.8438-0.90625 0.625 0 1.1719 0.25 0.5625 0.25 0.92188 0.70312t0.5625 1.0938q0.20312 0.64062 0.20312 1.375 0 1.7344-0.85938 2.6875-0.85938 0.9375-2.0625 0.9375-1.1875 0-1.875-1v0.84375zm-0.015625-3.4219q0 1.2188 0.34375 1.75 0.53125 0.89062 1.4531 0.89062 0.75 0 1.2969-0.65625 0.54688-0.65625 0.54688-1.9375 0-1.3281-0.53125-1.9531-0.51562-0.625-1.2656-0.625-0.75 0-1.2969 0.65625-0.54688 0.64062-0.54688 1.875zm10.772 2.5938q-0.625 0.53125-1.2188 0.76562-0.57812 0.21875-1.25 0.21875-1.125 0-1.7188-0.54688-0.59375-0.54688-0.59375-1.3906 0-0.48438 0.21875-0.89062 0.23438-0.42188 0.59375-0.67188 0.375-0.25 0.82812-0.375 0.32812-0.078125 1.0156-0.17188 1.375-0.15625 2.0312-0.39062 0.015625-0.23438 0.015625-0.29688 0-0.70312-0.32812-0.98438-0.4375-0.39062-1.2969-0.39062-0.8125 0-1.2031 0.28125-0.375 0.28125-0.5625 1l-1.1094-0.14062q0.14062-0.71875 0.48438-1.1562 0.35938-0.45312 1.0156-0.6875 0.67188-0.23438 1.5312-0.23438 0.875 0 1.4062 0.20312 0.54688 0.20312 0.79688 0.51562 0.25 0.29688 0.35938 0.76562 0.046875 0.29688 0.046875 1.0625v1.5156q0 1.5938 0.078125 2.0156 0.078125 0.42188 0.28125 0.8125h-1.1875q-0.17188-0.35938-0.23438-0.82812zm-0.09375-2.5625q-0.625 0.26562-1.8594 0.4375-0.70312 0.10938-1 0.23438t-0.45312 0.375q-0.15625 0.23438-0.15625 0.53125 0 0.45312 0.34375 0.76562 0.34375 0.29688 1.0156 0.29688 0.65625 0 1.1719-0.28125 0.51562-0.29688 0.76562-0.79688 0.17188-0.375 0.17188-1.1406v-0.42188zm2.6625 1.375l1.125-0.17188q0.09375 0.67188 0.53125 1.0469 0.4375 0.35938 1.2188 0.35938 0.78125 0 1.1562-0.3125 0.39062-0.32812 0.39062-0.76562 0-0.39062-0.34375-0.60938-0.23438-0.15625-1.1719-0.39062-1.25-0.3125-1.7344-0.54688-0.48438-0.23438-0.73438-0.64062-0.25-0.40625-0.25-0.90625 0-0.45312 0.20312-0.82812 0.20312-0.39062 0.5625-0.64062 0.26562-0.20312 0.71875-0.32812 0.46875-0.14062 1-0.14062 0.78125 0 1.375 0.23438 0.60938 0.21875 0.89062 0.60938 0.29688 0.39062 0.40625 1.0469l-1.125 0.15625q-0.078125-0.53125-0.4375-0.8125-0.35938-0.29688-1.0312-0.29688-0.78125 0-1.125 0.26562-0.34375 0.25-0.34375 0.60938 0 0.21875 0.14062 0.39062 0.14062 0.1875 0.4375 0.3125 0.17188 0.0625 1.0156 0.28125 1.2188 0.32812 1.6875 0.53125 0.48438 0.20312 0.75 0.60938 0.28125 0.39062 0.28125 0.96875 0 0.57812-0.34375 1.0781-0.32812 0.5-0.95312 0.78125t-1.4219 0.28125q-1.3125 0-2-0.54688t-0.875-1.625zm11.727-0.15625l1.1875 0.14062q-0.28125 1.0469-1.0469 1.625-0.75 0.5625-1.9219 0.5625-1.4844 0-2.3594-0.90625-0.85938-0.92188-0.85938-2.5625 0-1.7031 0.875-2.6406 0.89062-0.9375 2.2812-0.9375 1.3594 0 2.2031 0.92188 0.85938 0.92188 0.85938 2.5781 0 0.10938 0 0.3125h-5.0312q0.0625 1.1094 0.625 1.7031 0.5625 0.59375 1.4062 0.59375 0.64062 0 1.0781-0.32812 0.45312-0.34375 0.70312-1.0625zm-3.75-1.8438h3.7656q-0.078125-0.85938-0.4375-1.2812-0.54688-0.65625-1.4062-0.65625-0.79688 0-1.3281 0.53125-0.53125 0.51562-0.59375 1.4062z" fill="#000"/>
  <path d="m103.78 58.598h108.91v48.819h-108.91z" fill="#e6b8af"/>
  <path d="m134.91 71.808v-5.8594h-1v-0.875h1v-0.71875q0-0.6875 0.125-1.0156 0.17188-0.4375 0.57812-0.71875 0.42188-0.28125 1.1719-0.28125 0.48438 0 1.0625 0.125l-0.17188 0.98438q-0.35938-0.0625-0.67188-0.0625-0.51562 0-0.73438 0.23438-0.21875 0.21875-0.21875 0.82813v0.625h1.3125v0.875h-1.3125v5.8594h-1.1406zm3.4217 0v-6.7344h1.0312v1.0156q0.39062-0.71875 0.71875-0.9375 0.34375-0.23438 0.73438-0.23438 0.57812 0 1.1719 0.35938l-0.39062 1.0625q-0.42188-0.25-0.82812-0.25-0.375 0-0.6875 0.23438-0.29688 0.21875-0.42188 0.625-0.1875 0.60938-0.1875 1.3281v3.5312h-1.1406zm4.0321-3.375q0-1.875 1.0312-2.7656 0.875-0.75 2.125-0.75 1.3906 0 2.2656 0.90625 0.89062 0.90625 0.89062 2.5156 0 1.2969-0.39062 2.0469t-1.1406 1.1719q-0.75 0.40625-1.625 0.40625-1.4219 0-2.2969-0.90625-0.85938-0.90625-0.85938-2.625zm1.1719 0q0 1.2969 0.5625 1.9531 0.5625 0.64062 1.4219 0.64062 0.84375 0 1.4062-0.64062 0.57812-0.65625 0.57812-1.9844 0-1.25-0.57812-1.8906-0.5625-0.65625-1.4062-0.65625-0.85938 0-1.4219 0.64062-0.5625 0.64062-0.5625 1.9375zm6.6625 3.375v-6.7344h1.0312v0.95312q0.73438-1.1094 2.1406-1.1094 0.60938 0 1.1094 0.21875 0.51562 0.21875 0.76562 0.57812 0.26562 0.34375 0.35938 0.84375 0.0625 0.3125 0.0625 1.1094v4.1406h-1.1406v-4.0938q0-0.70312-0.14062-1.0469-0.125-0.34375-0.46875-0.54688-0.32812-0.21875-0.78125-0.21875-0.73438 0-1.2656 0.46875-0.53125 0.45312-0.53125 1.75v3.6875h-1.1406zm9.9125-1.0156l0.15625 1q-0.48438 0.10938-0.85938 0.10938-0.625 0-0.96875-0.20312t-0.48438-0.51562q-0.14062-0.32812-0.14062-1.3438v-3.8906h-0.82812v-0.875h0.82812v-1.6719l1.1406-0.6875v2.3594h1.1562v0.875h-1.1562v3.9531q0 0.48438 0.0625 0.625t0.1875 0.21875q0.14062 0.078125 0.39062 0.078125 0.20312 0 0.51562-0.03125zm5.8124-1.1562l1.1875 0.14062q-0.28125 1.0469-1.0469 1.625-0.75 0.5625-1.9219 0.5625-1.4844 0-2.3594-0.90625-0.85938-0.92188-0.85938-2.5625 0-1.7031 0.875-2.6406 0.89062-0.9375 2.2812-0.9375 1.3594 0 2.2031 0.92188 0.85938 0.92188 0.85938 2.5781 0 0.10938 0 0.3125h-5.0312q0.0625 1.1094 0.625 1.7031 0.5625 0.59375 1.4062 0.59375 0.64062 0 1.0781-0.32812 0.45312-0.34375 0.70312-1.0625zm-3.75-1.8438h3.7656q-0.078125-0.85938-0.4375-1.2812-0.54688-0.65625-1.4062-0.65625-0.79688 0-1.3281 0.53125-0.53125 0.51562-0.59375 1.4062zm6.5531 4.0156v-6.7344h1.0312v0.95312q0.73438-1.1094 2.1406-1.1094 0.60938 0 1.1094 0.21875 0.51562 0.21875 0.76562 0.57812 0.26562 0.34375 0.35938 0.84375 0.0625 0.3125 0.0625 1.1094v4.1406h-1.1406v-4.0938q0-0.70312-0.14062-1.0469-0.125-0.34375-0.46875-0.54688-0.32812-0.21875-0.78125-0.21875-0.73438 0-1.2656 0.46875-0.53125 0.45312-0.53125 1.75v3.6875h-1.1406zm11.787 0v-0.84375q-0.64062 1-1.8906 1-0.79688 0-1.4844-0.4375-0.67188-0.45312-1.0469-1.25-0.375-0.79688-0.375-1.8281 0-1.0156 0.34375-1.8281 0.34375-0.82812 1.0156-1.2656 0.67188-0.4375 1.5-0.4375 0.60938 0 1.0781 0.26562 0.48438 0.25 0.78125 0.65625v-3.3438h1.1406v9.3125h-1.0625zm-3.6094-3.3594q0 1.2969 0.53125 1.9375 0.54688 0.64062 1.2969 0.64062 0.75 0 1.2656-0.60938 0.53125-0.625 0.53125-1.875 0-1.3906-0.53125-2.0312-0.53125-0.65625-1.3125-0.65625-0.76562 0-1.2812 0.625-0.5 0.625-0.5 1.9688z" fill="#000"/>
  <path d="m118.07 87.808v-9.3125h1.2344v8.2188h4.5781v1.0938h-5.8125zm6.8969-3.375q0-1.875 1.0312-2.7656 0.875-0.75 2.125-0.75 1.3906 0 2.2656 0.90625 0.89062 0.90625 0.89062 2.5156 0 1.2969-0.39062 2.0469t-1.1406 1.1719q-0.75 0.40625-1.625 0.40625-1.4219 0-2.2969-0.90625-0.85938-0.90625-0.85938-2.625zm1.1719 0q0 1.2969 0.5625 1.9531 0.5625 0.64062 1.4219 0.64062 0.84375 0 1.4062-0.64062 0.57812-0.65625 0.57812-1.9844 0-1.25-0.57812-1.8906-0.5625-0.65625-1.4062-0.65625-0.85938 0-1.4219 0.64062-0.5625 0.64062-0.5625 1.9375zm11.053 2.5469q-0.625 0.53125-1.2188 0.76562-0.57812 0.21875-1.25 0.21875-1.125 0-1.7188-0.54688-0.59375-0.54688-0.59375-1.3906 0-0.48438 0.21875-0.89062 0.23438-0.42188 0.59375-0.67188 0.375-0.25 0.82812-0.375 0.32812-0.078125 1.0156-0.17188 1.375-0.15625 2.0312-0.39062 0.015625-0.23438 0.015625-0.29688 0-0.70312-0.32812-0.98438-0.4375-0.39062-1.2969-0.39062-0.8125 0-1.2031 0.28125-0.375 0.28125-0.5625 1l-1.1094-0.14062q0.14062-0.71875 0.48438-1.1562 0.35938-0.45312 1.0156-0.6875 0.67188-0.23438 1.5312-0.23438 0.875 0 1.4062 0.20312 0.54688 0.20312 0.79688 0.51562 0.25 0.29688 0.35938 0.76562 0.046875 0.29688 0.046875 1.0625v1.5156q0 1.5938 0.078125 2.0156 0.078125 0.42188 0.28125 0.8125h-1.1875q-0.17188-0.35938-0.23438-0.82812zm-0.09375-2.5625q-0.625 0.26562-1.8594 0.4375-0.70312 0.10938-1 0.23438t-0.45312 0.375q-0.15625 0.23438-0.15625 0.53125 0 0.45312 0.34375 0.76562 0.34375 0.29688 1.0156 0.29688 0.65625 0 1.1719-0.28125 0.51562-0.29688 0.76562-0.79688 0.17188-0.375 0.17188-1.1406v-0.42188zm7.4906 3.3906v-0.84375q-0.64062 1-1.8906 1-0.79688 0-1.4844-0.4375-0.67188-0.45312-1.0469-1.25-0.375-0.79688-0.375-1.8281 0-1.0156 0.34375-1.8281 0.34375-0.82812 1.0156-1.2656 0.67188-0.4375 1.5-0.4375 0.60938 0 1.0781 0.26562 0.48438 0.25 0.78125 0.65625v-3.3438h1.1406v9.3125h-1.0625zm-3.6094-3.3594q0 1.2969 0.53125 1.9375 0.54688 0.64062 1.2969 0.64062 0.75 0 1.2656-0.60938 0.53125-0.625 0.53125-1.875 0-1.3906-0.53125-2.0312-0.53125-0.65625-1.3125-0.65625-0.76562 0-1.2812 0.625-0.5 0.625-0.5 1.9688zm6.7406 3.3594v-9.3125h3.4844q1.0781 0 1.7188 0.29688 0.64062 0.28125 1 0.875 0.375 0.57812 0.375 1.2188 0 0.59375-0.32812 1.125-0.32812 0.51562-0.96875 0.84375 0.84375 0.25 1.2969 0.84375 0.45312 0.59375 0.45312 1.4062 0 0.65625-0.28125 1.2188-0.28125 0.5625-0.6875 0.875-0.40625 0.29688-1.0156 0.45312-0.60938 0.15625-1.5 0.15625h-3.5469zm1.2344-5.3906h2.0156q0.8125 0 1.1719-0.10938 0.46875-0.14062 0.70312-0.46875 0.23438-0.32812 0.23438-0.8125 0-0.46875-0.21875-0.8125-0.21875-0.35938-0.64062-0.48438-0.40625-0.125-1.4062-0.125h-1.8594v2.8125zm0 4.2969h2.3125q0.59375 0 0.84375-0.046875 0.42188-0.078125 0.70312-0.25 0.28125-0.1875 0.46875-0.51562 0.1875-0.34375 0.1875-0.79688 0-0.51562-0.26562-0.89062-0.26562-0.39062-0.75-0.54688-0.46875-0.15625-1.3594-0.15625h-2.1406v3.2031zm11.952 0.26562q-0.625 0.53125-1.2188 0.76562-0.57812 0.21875-1.25 0.21875-1.125 0-1.7188-0.54688-0.59375-0.54688-0.59375-1.3906 0-0.48438 0.21875-0.89062 0.23438-0.42188 0.59375-0.67188 0.375-0.25 0.82812-0.375 0.32812-0.078125 1.0156-0.17188 1.375-0.15625 2.0312-0.39062 0.015625-0.23438 0.015625-0.29688 0-0.70312-0.32812-0.98438-0.4375-0.39062-1.2969-0.39062-0.8125 0-1.2031 0.28125-0.375 0.28125-0.5625 1l-1.1094-0.14062q0.14062-0.71875 0.48438-1.1562 0.35938-0.45312 1.0156-0.6875 0.67188-0.23438 1.5312-0.23438 0.875 0 1.4062 0.20312 0.54688 0.20312 0.79688 0.51562 0.25 0.29688 0.35938 0.76562 0.046875 0.29688 0.046875 1.0625v1.5156q0 1.5938 0.078125 2.0156 0.078125 0.42188 0.28125 0.8125h-1.1875q-0.17188-0.35938-0.23438-0.82812zm-0.09375-2.5625q-0.625 0.26562-1.8594 0.4375-0.70312 0.10938-1 0.23438t-0.45312 0.375q-0.15625 0.23438-0.15625 0.53125 0 0.45312 0.34375 0.76562 0.34375 0.29688 1.0156 0.29688 0.65625 0 1.1719-0.28125 0.51562-0.29688 0.76562-0.79688 0.17188-0.375 0.17188-1.1406v-0.42188zm3.0844 3.3906v-9.3125h1.1406v9.3125h-1.1406zm7.383-0.82812q-0.625 0.53125-1.2188 0.76562-0.57812 0.21875-1.25 0.21875-1.125 0-1.7188-0.54688-0.59375-0.54688-0.59375-1.3906 0-0.48438 0.21875-0.89062 0.23438-0.42188 0.59375-0.67188 0.375-0.25 0.82812-0.375 0.32812-0.078125 1.0156-0.17188 1.375-0.15625 2.0312-0.39062 0.015625-0.23438 0.015625-0.29688 0-0.70312-0.32812-0.98438-0.4375-0.39062-1.2969-0.39062-0.8125 0-1.2031 0.28125-0.375 0.28125-0.5625 1l-1.1094-0.14062q0.14062-0.71875 0.48438-1.1562 0.35938-0.45312 1.0156-0.6875 0.67188-0.23438 1.5312-0.23438 0.875 0 1.4062 0.20312 0.54688 0.20312 0.79688 0.51562 0.25 0.29688 0.35938 0.76562 0.046875 0.29688 0.046875 1.0625v1.5156q0 1.5938 0.078125 2.0156 0.078125 0.42188 0.28125 0.8125h-1.1875q-0.17188-0.35938-0.23438-0.82812zm-0.09375-2.5625q-0.625 0.26562-1.8594 0.4375-0.70312 0.10938-1 0.23438t-0.45312 0.375q-0.15625 0.23438-0.15625 0.53125 0 0.45312 0.34375 0.76562 0.34375 0.29688 1.0156 0.29688 0.65625 0 1.1719-0.28125 0.51562-0.29688 0.76562-0.79688 0.17188-0.375 0.17188-1.1406v-0.42188zm3.1156 3.3906v-6.7344h1.0312v0.95312q0.73438-1.1094 2.1406-1.1094 0.60938 0 1.1094 0.21875 0.51562 0.21875 0.76562 0.57812 0.26562 0.34375 0.35938 0.84375 0.0625 0.3125 0.0625 1.1094v4.1406h-1.1406v-4.0938q0-0.70312-0.14062-1.0469-0.125-0.34375-0.46875-0.54688-0.32812-0.21875-0.78125-0.21875-0.73438 0-1.2656 0.46875-0.53125 0.45312-0.53125 1.75v3.6875h-1.1406zm11.803-2.4688l1.125 0.14062q-0.17188 1.1719-0.9375 1.8281-0.76562 0.65625-1.8594 0.65625-1.3906 0-2.2344-0.90625-0.82812-0.90625-0.82812-2.5938 0-1.0938 0.35938-1.9062 0.35938-0.82812 1.0938-1.2344 0.73438-0.40625 1.6094-0.40625 1.0938 0 1.7969 0.5625 0.70312 0.54688 0.89062 1.5625l-1.1094 0.17188q-0.15625-0.67188-0.5625-1.0156-0.39062-0.34375-0.96875-0.34375-0.85938 0-1.4062 0.625-0.53125 0.60938-0.53125 1.9531 0 1.3594 0.51562 1.9844 0.51562 0.60938 1.3594 0.60938 0.67188 0 1.125-0.40625 0.45312-0.42188 0.5625-1.2812zm6.8828 0.29688l1.1875 0.14062q-0.28125 1.0469-1.0469 1.625-0.75 0.5625-1.9219 0.5625-1.4844 0-2.3594-0.90625-0.85938-0.92188-0.85938-2.5625 0-1.7031 0.875-2.6406 0.89062-0.9375 2.2812-0.9375 1.3594 0 2.2031 0.92188 0.85938 0.92188 0.85938 2.5781 0 0.10938 0 0.3125h-5.0312q0.0625 1.1094 0.625 1.7031 0.5625 0.59375 1.4062 0.59375 0.64062 0 1.0781-0.32812 0.45312-0.34375 0.70312-1.0625zm-3.75-1.8438h3.7656q-0.078125-0.85938-0.4375-1.2812-0.54688-0.65625-1.4062-0.65625-0.79688 0-1.3281 0.53125-0.53125 0.51562-0.59375 1.4062zm6.5375 4.0156v-6.7344h1.0312v1.0156q0.39062-0.71875 0.71875-0.9375 0.34375-0.23438 0.73438-0.23438 0.57812 0 1.1719 0.35938l-0.39062 1.0625q-0.42188-0.25-0.82812-0.25-0.375 0-0.6875 0.23438-0.29688 0.21875-0.42188 0.625-0.1875 0.60938-0.1875 1.3281v3.5312h-1.1406z" fill="#000"/>
  <path d="m144.75 103.81v-9.3125h1.2344v8.2188h4.5781v1.0938h-5.8125zm7.6781 0v-9.3125h1.2188v9.3125h-1.2188zm6.1405 0l-3.5938-9.3125h1.3281l2.4219 6.7656q0.28125 0.8125 0.48438 1.5312 0.21875-0.76562 0.5-1.5312l2.5156-6.7656h1.25l-3.6406 9.3125h-1.2656zm6.2648 0v-9.3125h6.7188v1.1094h-5.4844v2.8438h5.1406v1.0938h-5.1406v3.1719h5.7031v1.0938h-6.9375z" fill="#000"/>
  <path d="m103.78 151.79h108.91v48.819h-108.91z" fill="#e6b8af"/>
  <path d="m134.91 165v-5.8594h-1v-0.875h1v-0.71875q0-0.6875 0.125-1.0156 0.17188-0.4375 0.57812-0.71875 0.42188-0.28125 1.1719-0.28125 0.48438 0 1.0625 0.125l-0.17188 0.98438q-0.35938-0.0625-0.67188-0.0625-0.51562 0-0.73438 0.23438-0.21875 0.21875-0.21875 0.82812v0.625h1.3125v0.875h-1.3125v5.8594h-1.1406zm3.4217 0v-6.7344h1.0312v1.0156q0.39062-0.71875 0.71875-0.9375 0.34375-0.23438 0.73438-0.23438 0.57812 0 1.1719 0.35938l-0.39062 1.0625q-0.42188-0.25-0.82812-0.25-0.375 0-0.6875 0.23438-0.29688 0.21875-0.42188 0.625-0.1875 0.60938-0.1875 1.3281v3.5312h-1.1406zm4.0321-3.375q0-1.875 1.0312-2.7656 0.875-0.75 2.125-0.75 1.3906 0 2.2656 0.90625 0.89062 0.90625 0.89062 2.5156 0 1.2969-0.39062 2.0469t-1.1406 1.1719q-0.75 0.40625-1.625 0.40625-1.4219 0-2.2969-0.90625-0.85938-0.90625-0.85938-2.625zm1.1719 0q0 1.2969 0.5625 1.9531 0.5625 0.64062 1.4219 0.64062 0.84375 0 1.4062-0.64062 0.57812-0.65625 0.57812-1.9844 0-1.25-0.57812-1.8906-0.5625-0.65625-1.4062-0.65625-0.85938 0-1.4219 0.64062-0.5625 0.64062-0.5625 1.9375zm6.6625 3.375v-6.7344h1.0312v0.95312q0.73438-1.1094 2.1406-1.1094 0.60938 0 1.1094 0.21875 0.51562 0.21875 0.76562 0.57812 0.26562 0.34375 0.35938 0.84375 0.0625 0.3125 0.0625 1.1094v4.1406h-1.1406v-4.0938q0-0.70312-0.14062-1.0469-0.125-0.34375-0.46875-0.54688-0.32812-0.21875-0.78125-0.21875-0.73438 0-1.2656 0.46875-0.53125 0.45312-0.53125 1.75v3.6875h-1.1406zm9.9125-1.0156l0.15625 1q-0.48438 0.10938-0.85938 0.10938-0.625 0-0.96875-0.20312t-0.48438-0.51562q-0.14062-0.32812-0.14062-1.3438v-3.8906h-0.82812v-0.875h0.82812v-1.6719l1.1406-0.6875v2.3594h1.1562v0.875h-1.1562v3.9531q0 0.48438 0.0625 0.625t0.1875 0.21875q0.14062 0.078125 0.39062 0.078125 0.20312 0 0.51562-0.03125zm5.8124-1.1562l1.1875 0.14062q-0.28125 1.0469-1.0469 1.625-0.75 0.5625-1.9219 0.5625-1.4844 0-2.3594-0.90625-0.85938-0.92188-0.85938-2.5625 0-1.7031 0.875-2.6406 0.89062-0.9375 2.2812-0.9375 1.3594 0 2.2031 0.92188 0.85938 0.92188 0.85938 2.5781 0 0.10938 0 0.3125h-5.0312q0.0625 1.1094 0.625 1.7031 0.5625 0.59375 1.4062 0.59375 0.64062 0 1.0781-0.32812 0.45312-0.34375 0.70312-1.0625zm-3.75-1.8438h3.7656q-0.078125-0.85938-0.4375-1.2812-0.54688-0.65625-1.4062-0.65625-0.79688 0-1.3281 0.53125-0.53125 0.51562-0.59375 1.4062zm6.5531 4.0156v-6.7344h1.0312v0.95312q0.73438-1.1094 2.1406-1.1094 0.60938 0 1.1094 0.21875 0.51562 0.21875 0.76562 0.57812 0.26562 0.34375 0.35938 0.84375 0.0625 0.3125 0.0625 1.1094v4.1406h-1.1406v-4.0938q0-0.70312-0.14062-1.0469-0.125-0.34375-0.46875-0.54688-0.32812-0.21875-0.78125-0.21875-0.73438 0-1.2656 0.46875-0.53125 0.45312-0.53125 1.75v3.6875h-1.1406zm11.787 0v-0.84375q-0.64062 1-1.8906 1-0.79688 0-1.4844-0.4375-0.67188-0.45312-1.0469-1.25-0.375-0.79688-0.375-1.8281 0-1.0156 0.34375-1.8281 0.34375-0.82812 1.0156-1.2656 0.67188-0.4375 1.5-0.4375 0.60938 0 1.0781 0.26562 0.48438 0.25 0.78125 0.65625v-3.3438h1.1406v9.3125h-1.0625zm-3.6094-3.3594q0 1.2969 0.53125 1.9375 0.54688 0.64062 1.2969 0.64062 0.75 0 1.2656-0.60938 0.53125-0.625 0.53125-1.875 0-1.3906-0.53125-2.0312-0.53125-0.65625-1.3125-0.65625-0.76562 0-1.2812 0.625-0.5 0.625-0.5 1.9688z" fill="#000"/>
  <path d="m118.07 181v-9.3125h1.2344v8.2188h4.5781v1.0938h-5.8125zm6.8969-3.375q0-1.875 1.0312-2.7656 0.875-0.75 2.125-0.75 1.3906 0 2.2656 0.90625 0.89062 0.90625 0.89062 2.5156 0 1.2969-0.39062 2.0469t-1.1406 1.1719q-0.75 0.40625-1.625 0.40625-1.4219 0-2.2969-0.90625-0.85938-0.90625-0.85938-2.625zm1.1719 0q0 1.2969 0.5625 1.9531 0.5625 0.64062 1.4219 0.64062 0.84375 0 1.4062-0.64062 0.57812-0.65625 0.57812-1.9844 0-1.25-0.57812-1.8906-0.5625-0.65625-1.4062-0.65625-0.85938 0-1.4219 0.64062-0.5625 0.64062-0.5625 1.9375zm11.053 2.5469q-0.625 0.53125-1.2188 0.76562-0.57812 0.21875-1.25 0.21875-1.125 0-1.7188-0.54688-0.59375-0.54688-0.59375-1.3906 0-0.48438 0.21875-0.89062 0.23438-0.42188 0.59375-0.67188 0.375-0.25 0.82812-0.375 0.32812-0.078125 1.0156-0.17188 1.375-0.15625 2.0312-0.39062 0.015625-0.23438 0.015625-0.29688 0-0.70312-0.32812-0.98438-0.4375-0.39062-1.2969-0.39062-0.8125 0-1.2031 0.28125-0.375 0.28125-0.5625 1l-1.1094-0.14062q0.14062-0.71875 0.48438-1.1562 0.35938-0.45312 1.0156-0.6875 0.67188-0.23438 1.5312-0.23438 0.875 0 1.4062 0.20312 0.54688 0.20312 0.79688 0.51562 0.25 0.29688 0.35938 0.76562 0.046875 0.29688 0.046875 1.0625v1.5156q0 1.5938 0.078125 2.0156 0.078125 0.42188 0.28125 0.8125h-1.1875q-0.17188-0.35938-0.23438-0.82812zm-0.09375-2.5625q-0.625 0.26562-1.8594 0.4375-0.70312 0.10938-1 0.23438t-0.45312 0.375q-0.15625 0.23438-0.15625 0.53125 0 0.45312 0.34375 0.76562 0.34375 0.29688 1.0156 0.29688 0.65625 0 1.1719-0.28125 0.51562-0.29688 0.76562-0.79688 0.17188-0.375 0.17188-1.1406v-0.42188zm7.4906 3.3906v-0.84375q-0.64062 1-1.8906 1-0.79688 0-1.4844-0.4375-0.67188-0.45312-1.0469-1.25-0.375-0.79688-0.375-1.8281 0-1.0156 0.34375-1.8281 0.34375-0.82812 1.0156-1.2656 0.67188-0.4375 1.5-0.4375 0.60938 0 1.0781 0.26562 0.48438 0.25 0.78125 0.65625v-3.3438h1.1406v9.3125h-1.0625zm-3.6094-3.3594q0 1.2969 0.53125 1.9375 0.54688 0.64062 1.2969 0.64062 0.75 0 1.2656-0.60938 0.53125-0.625 0.53125-1.875 0-1.3906-0.53125-2.0312-0.53125-0.65625-1.3125-0.65625-0.76562 0-1.2812 0.625-0.5 0.625-0.5 1.9688zm6.7406 3.3594v-9.3125h3.4844q1.0781 0 1.7188 0.29688 0.64062 0.28125 1 0.875 0.375 0.57812 0.375 1.2188 0 0.59375-0.32812 1.125-0.32812 0.51562-0.96875 0.84375 0.84375 0.25 1.2969 0.84375 0.45312 0.59375 0.45312 1.4062 0 0.65625-0.28125 1.2188-0.28125 0.5625-0.6875 0.875-0.40625 0.29688-1.0156 0.45312-0.60938 0.15625-1.5 0.15625h-3.5469zm1.2344-5.3906h2.0156q0.8125 0 1.1719-0.10938 0.46875-0.14062 0.70312-0.46875 0.23438-0.32812 0.23438-0.8125 0-0.46875-0.21875-0.8125-0.21875-0.35938-0.64062-0.48438-0.40625-0.125-1.4062-0.125h-1.8594v2.8125zm0 4.2969h2.3125q0.59375 0 0.84375-0.046875 0.42188-0.078125 0.70312-0.25 0.28125-0.1875 0.46875-0.51562 0.1875-0.34375 0.1875-0.79688 0-0.51562-0.26562-0.89062-0.26562-0.39062-0.75-0.54688-0.46875-0.15625-1.3594-0.15625h-2.1406v3.2031zm11.952 0.26562q-0.625 0.53125-1.2188 0.76562-0.57812 0.21875-1.25 0.21875-1.125 0-1.7188-0.54688-0.59375-0.54688-0.59375-1.3906 0-0.48438 0.21875-0.89062 0.23438-0.42188 0.59375-0.67188 0.375-0.25 0.82812-0.375 0.32812-0.078125 1.0156-0.17188 1.375-0.15625 2.0312-0.39062 0.015625-0.23438 0.015625-0.29688 0-0.70312-0.32812-0.98438-0.4375-0.39062-1.2969-0.39062-0.8125 0-1.2031 0.28125-0.375 0.28125-0.5625 1l-1.1094-0.14062q0.14062-0.71875 0.48438-1.1562 0.35938-0.45312 1.0156-0.6875 0.67188-0.23438 1.5312-0.23438 0.875 0 1.4062 0.20312 0.54688 0.20312 0.79688 0.51562 0.25 0.29688 0.35938 0.76562 0.046875 0.29688 0.046875 1.0625v1.5156q0 1.5938 0.078125 2.0156 0.078125 0.42188 0.28125 0.8125h-1.1875q-0.17188-0.35938-0.23438-0.82812zm-0.09375-2.5625q-0.625 0.26562-1.8594 0.4375-0.70312 0.10938-1 0.23438t-0.45312 0.375q-0.15625 0.23438-0.15625 0.53125 0 0.45312 0.34375 0.76562 0.34375 0.29688 1.0156 0.29688 0.65625 0 1.1719-0.28125 0.51562-0.29688 0.76562-0.79688 0.17188-0.375 0.17188-1.1406v-0.42188zm3.0844 3.3906v-9.3125h1.1406v9.3125h-1.1406zm7.383-0.82812q-0.625 0.53125-1.2188 0.76562-0.57812 0.21875-1.25 0.21875-1.125 0-1.7188-0.54688-0.59375-0.54688-0.59375-1.3906 0-0.48438 0.21875-0.89062 0.23438-0.42188 0.59375-0.67188 0.375-0.25 0.82812-0.375 0.32812-0.078125 1.0156-0.17188 1.375-0.15625 2.0312-0.39062 0.015625-0.23438 0.015625-0.29688 0-0.70312-0.32812-0.98438-0.4375-0.39062-1.2969-0.39062-0.8125 0-1.2031 0.28125-0.375 0.28125-0.5625 1l-1.1094-0.14062q0.14062-0.71875 0.48438-1.1562 0.35938-0.45312 1.0156-0.6875 0.67188-0.23438 1.5312-0.23438 0.875 0 1.4062 0.20312 0.54688 0.20312 0.79688 0.51562 0.25 0.29688 0.35938 0.76562 0.046875 0.29688 0.046875 1.0625v1.5156q0 1.5938 0.078125 2.0156 0.078125 0.42188 0.28125 0.8125h-1.1875q-0.17188-0.35938-0.23438-0.82812zm-0.09375-2.5625q-0.625 0.26562-1.8594 0.4375-0.70312 0.10938-1 0.23438t-0.45312 0.375q-0.15625 0.23438-0.15625 0.53125 0 0.45312 0.34375 0.76562 0.34375 0.29688 1.0156 0.29688 0.65625 0 1.1719-0.28125 0.51562-0.29688 0.76562-0.79688 0.17188-0.375 0.17188-1.1406v-0.42188zm3.1156 3.3906v-6.7344h1.0312v0.95312q0.73438-1.1094 2.1406-1.1094 0.60938 0 1.1094 0.21875 0.51562 0.21875 0.76562 0.57812 0.26562 0.34375 0.35938 0.84375 0.0625 0.3125 0.0625 1.1094v4.1406h-1.1406v-4.0938q0-0.70312-0.14062-1.0469-0.125-0.34375-0.46875-0.54688-0.32812-0.21875-0.78125-0.21875-0.73438 0-1.2656 0.46875-0.53125 0.45312-0.53125 1.75v3.6875h-1.1406zm11.803-2.4688l1.125 0.14062q-0.17188 1.1719-0.9375 1.8281-0.76562 0.65625-1.8594 0.65625-1.3906 0-2.2344-0.90625-0.82812-0.90625-0.82812-2.5938 0-1.0938 0.35938-1.9062 0.35938-0.82812 1.0938-1.2344 0.73438-0.40625 1.6094-0.40625 1.0938 0 1.7969 0.5625 0.70312 0.54688 0.89062 1.5625l-1.1094 0.17188q-0.15625-0.67188-0.5625-1.0156-0.39062-0.34375-0.96875-0.34375-0.85938 0-1.4062 0.625-0.53125 0.60938-0.53125 1.9531 0 1.3594 0.51562 1.9844 0.51562 0.60938 1.3594 0.60938 0.67188 0 1.125-0.40625 0.45312-0.42188 0.5625-1.2812zm6.8828 0.29688l1.1875 0.14062q-0.28125 1.0469-1.0469 1.625-0.75 0.5625-1.9219 0.5625-1.4844 0-2.3594-0.90625-0.85938-0.92188-0.85938-2.5625 0-1.7031 0.875-2.6406 0.89062-0.9375 2.2812-0.9375 1.3594 0 2.2031 0.92188 0.85938 0.92188 0.85938 2.5781 0 0.10938 0 0.3125h-5.0312q0.0625 1.1094 0.625 1.7031 0.5625 0.59375 1.4062 0.59375 0.64062 0 1.0781-0.32812 0.45312-0.34375 0.70312-1.0625zm-3.75-1.8438h3.7656q-0.078125-0.85938-0.4375-1.2812-0.54688-0.65625-1.4062-0.65625-0.79688 0-1.3281 0.53125-0.53125 0.51562-0.59375 1.4062zm6.5375 4.0156v-6.7344h1.0312v1.0156q0.39062-0.71875 0.71875-0.9375 0.34375-0.23438 0.73438-0.23438 0.57812 0 1.1719 0.35938l-0.39062 1.0625q-0.42188-0.25-0.82812-0.25-0.375 0-0.6875 0.23438-0.29688 0.21875-0.42188 0.625-0.1875 0.60938-0.1875 1.3281v3.5312h-1.1406z" fill="#000"/>
  <path d="m127.34 194.02l1.1719-0.10938q0.078125 0.70312 0.375 1.1562 0.3125 0.4375 0.9375 0.71875 0.64062 0.26562 1.4375 0.26562 0.70312 0 1.2344-0.20312 0.54688-0.20312 0.8125-0.5625 0.26562-0.375 0.26562-0.8125t-0.26562-0.76562q-0.25-0.32812-0.82812-0.54688-0.375-0.14062-1.6562-0.45312t-1.7969-0.57812q-0.67188-0.34375-1-0.85938-0.32812-0.53125-0.32812-1.1719 0-0.70312 0.39062-1.3125 0.40625-0.60938 1.1719-0.92188 0.78125-0.32812 1.7188-0.32812 1.0312 0 1.8125 0.34375 0.79688 0.32812 1.2188 0.98438 0.4375 0.64062 0.46875 1.4531l-1.1875 0.09375q-0.09375-0.89062-0.64062-1.3281-0.54688-0.45312-1.625-0.45312-1.1094 0-1.625 0.40625-0.51562 0.40625-0.51562 0.98438 0 0.5 0.35938 0.82812t1.8594 0.67188q1.5 0.32812 2.0625 0.57812 0.8125 0.375 1.1875 0.95312 0.39062 0.57812 0.39062 1.3281 0 0.73438-0.42188 1.3906-0.42188 0.65625-1.2188 1.0312-0.79688 0.35938-1.7969 0.35938-1.2656 0-2.125-0.35938-0.84375-0.375-1.3281-1.1094-0.48438-0.75-0.51562-1.6719zm11.687 2.9844v-8.2031h-3.0625v-1.1094h7.375v1.1094h-3.0781v8.2031h-1.2344zm4.7507 0l3.5781-9.3125h1.3125l3.8125 9.3125h-1.4062l-1.0781-2.8125h-3.8906l-1.0312 2.8125h-1.2969zm2.6875-3.8281h3.1562l-0.98438-2.5781q-0.4375-1.1719-0.65625-1.9219-0.17188 0.89062-0.5 1.7812l-1.0156 2.7188zm7.2023 3.8281v-9.3125h1.2656l4.8906 7.3125v-7.3125h1.1875v9.3125h-1.2656l-4.8906-7.3125v7.3125h-1.1875zm9.6408 0v-9.3125h3.2031q1.0938 0 1.6562 0.14062 0.8125 0.1875 1.375 0.67188 0.73438 0.60938 1.0938 1.5781 0.375 0.96875 0.375 2.2188 0 1.0625-0.25 1.8906-0.25 0.8125-0.64062 1.3438-0.39062 0.53125-0.85938 0.84375-0.45312 0.3125-1.1094 0.46875-0.64062 0.15625-1.4844 0.15625h-3.3594zm1.2344-1.0938h1.9844q0.92188 0 1.4375-0.17188 0.53125-0.17188 0.84375-0.48438 0.4375-0.4375 0.67188-1.1719 0.25-0.75 0.25-1.7969 0-1.4688-0.48438-2.25-0.46875-0.78125-1.1562-1.0469-0.5-0.1875-1.5938-0.1875h-1.9531v7.1094zm8.3439 1.0938v-9.3125h3.4844q1.0781 0 1.7188 0.29688 0.64062 0.28125 1 0.875 0.375 0.57812 0.375 1.2188 0 0.59375-0.32812 1.125-0.32812 0.51562-0.96875 0.84375 0.84375 0.25 1.2969 0.84375 0.45312 0.59375 0.45312 1.4062 0 0.65625-0.28125 1.2188-0.28125 0.5625-0.6875 0.875-0.40625 0.29688-1.0156 0.45312-0.60938 0.15625-1.5 0.15625h-3.5469zm1.2344-5.3906h2.0156q0.8125 0 1.1719-0.10938 0.46875-0.14062 0.70312-0.46875 0.23438-0.32812 0.23438-0.8125 0-0.46875-0.21875-0.8125-0.21875-0.35938-0.64062-0.48438-0.40625-0.125-1.4062-0.125h-1.8594v2.8125zm0 4.2969h2.3125q0.59375 0 0.84375-0.046875 0.42188-0.078125 0.70312-0.25 0.28125-0.1875 0.46875-0.51562 0.1875-0.34375 0.1875-0.79688 0-0.51562-0.26562-0.89062-0.26562-0.39062-0.75-0.54688-0.46875-0.15625-1.3594-0.15625h-2.1406v3.2031zm10.327 1.0938v-3.9375l-3.5938-5.375h1.5l1.8438 2.8125q0.5 0.78125 0.9375 1.5781 0.42188-0.73438 1.0156-1.6406l1.8125-2.75h1.4219l-3.7031 5.375v3.9375h-1.2344z" fill="#000"/>
  <path d="m450.16 50.598h108.91v37.543h-108.91z" fill="#cfe2f3"/>
  <path d="m500.97 65.342q-0.625 0.53125-1.2188 0.76562-0.57812 0.21875-1.25 0.21875-1.125 0-1.7188-0.54688-0.59375-0.54688-0.59375-1.3906 0-0.48437 0.21875-0.89062 0.23438-0.42188 0.59375-0.67188 0.375-0.25 0.82812-0.375 0.32812-0.078125 1.0156-0.17188 1.375-0.15625 2.0312-0.39062 0.015625-0.23438 0.015625-0.29688 0-0.70312-0.32812-0.98438-0.4375-0.39062-1.2969-0.39062-0.8125 0-1.2031 0.28125-0.375 0.28125-0.5625 1l-1.1094-0.14062q0.14062-0.71875 0.48438-1.1562 0.35938-0.45312 1.0156-0.6875 0.67188-0.23438 1.5312-0.23438 0.875 0 1.4062 0.20312 0.54688 0.20312 0.79688 0.51562 0.25 0.29688 0.35938 0.76562 0.046875 0.29688 0.046875 1.0625v1.5156q0 1.5937 0.078125 2.0156 0.078125 0.42188 0.28125 0.8125h-1.1875q-0.17188-0.35938-0.23438-0.82812zm-0.09375-2.5625q-0.625 0.26562-1.8594 0.4375-0.70312 0.10938-1 0.23438t-0.45312 0.375q-0.15625 0.23437-0.15625 0.53125 0 0.45312 0.34375 0.76562 0.34375 0.29688 1.0156 0.29688 0.65625 0 1.1719-0.28125 0.51562-0.29688 0.76562-0.79688 0.17188-0.375 0.17188-1.1406v-0.42188zm3.1156 5.9687v-9.3125h1.0312v0.875q0.375-0.51562 0.82812-0.76562 0.46875-0.26562 1.1406-0.26562 0.85938 0 1.5156 0.45312 0.65625 0.4375 0.98438 1.25 0.34375 0.79688 0.34375 1.7656 0 1.0312-0.375 1.8594-0.35938 0.82812-1.0781 1.2812-0.70312 0.4375-1.4844 0.4375-0.5625 0-1.0156-0.23438-0.45312-0.25-0.75-0.625v3.2812h-1.1406zm1.0312-5.9062q0 1.2969 0.53125 1.9219t1.2656 0.625q0.76562 0 1.3125-0.64062 0.54688-0.65625 0.54688-2 0-1.2969-0.53125-1.9375-0.53125-0.64062-1.2656-0.64062-0.73438 0-1.2969 0.6875-0.5625 0.67188-0.5625 1.9844zm6.3812-4.6562v-1.3281h1.1406v1.3281h-1.1406zm0 7.9844v-6.7344h1.1406v6.7344h-1.1406z" fill="#000"/>
  <path d="m464.44 82.17v-9.3125h1.2344v8.2188h4.5781v1.0938h-5.8125zm6.8969-3.375q0-1.875 1.0312-2.7656 0.875-0.75 2.125-0.75 1.3906 0 2.2656 0.90625 0.89062 0.90625 0.89062 2.5156 0 1.2969-0.39062 2.0469t-1.1406 1.1719q-0.75 0.40625-1.625 0.40625-1.4219 0-2.2969-0.90625-0.85938-0.90625-0.85938-2.625zm1.1719 0q0 1.2969 0.5625 1.9531 0.5625 0.64062 1.4219 0.64062 0.84375 0 1.4062-0.64062 0.57812-0.65625 0.57812-1.9844 0-1.25-0.57812-1.8906-0.5625-0.65625-1.4062-0.65625-0.85938 0-1.4219 0.64062-0.5625 0.64062-0.5625 1.9375zm11.053 2.5469q-0.625 0.53125-1.2188 0.76562-0.57812 0.21875-1.25 0.21875-1.125 0-1.7188-0.54688-0.59375-0.54688-0.59375-1.3906 0-0.48438 0.21875-0.89062 0.23438-0.42188 0.59375-0.67188 0.375-0.25 0.82812-0.375 0.32812-0.078125 1.0156-0.17188 1.375-0.15625 2.0312-0.39062 0.015625-0.23438 0.015625-0.29688 0-0.70312-0.32812-0.98438-0.4375-0.39062-1.2969-0.39062-0.8125 0-1.2031 0.28125-0.375 0.28125-0.5625 1l-1.1094-0.14062q0.14062-0.71875 0.48438-1.1562 0.35938-0.45312 1.0156-0.6875 0.67188-0.23438 1.5312-0.23438 0.875 0 1.4062 0.20312 0.54688 0.20312 0.79688 0.51562 0.25 0.29688 0.35938 0.76562 0.046875 0.29688 0.046875 1.0625v1.5156q0 1.5938 0.078125 2.0156 0.078125 0.42188 0.28125 0.8125h-1.1875q-0.17188-0.35938-0.23438-0.82812zm-0.09375-2.5625q-0.625 0.26562-1.8594 0.4375-0.70312 0.10938-1 0.23438t-0.45312 0.375q-0.15625 0.23438-0.15625 0.53125 0 0.45312 0.34375 0.76562 0.34375 0.29688 1.0156 0.29688 0.65625 0 1.1719-0.28125 0.51562-0.29688 0.76562-0.79688 0.17188-0.375 0.17188-1.1406v-0.42188zm7.4906 3.3906v-0.84375q-0.64062 1-1.8906 1-0.79688 0-1.4844-0.4375-0.67188-0.45312-1.0469-1.25-0.375-0.79688-0.375-1.8281 0-1.0156 0.34375-1.8281 0.34375-0.82812 1.0156-1.2656 0.67188-0.4375 1.5-0.4375 0.60938 0 1.0781 0.26562 0.48438 0.25 0.78125 0.65625v-3.3438h1.1406v9.3125h-1.0625zm-3.6094-3.3594q0 1.2969 0.53125 1.9375 0.54688 0.64062 1.2969 0.64062 0.75 0 1.2656-0.60938 0.53125-0.625 0.53125-1.875 0-1.3906-0.53125-2.0312-0.53125-0.65625-1.3125-0.65625-0.76562 0-1.2812 0.625-0.5 0.625-0.5 1.9688zm6.7406 3.3594v-9.3125h3.4844q1.0781 0 1.7188 0.29688 0.64062 0.28125 1 0.875 0.375 0.57812 0.375 1.2188 0 0.59375-0.32812 1.125-0.32812 0.51562-0.96875 0.84375 0.84375 0.25 1.2969 0.84375 0.45312 0.59375 0.45312 1.4062 0 0.65625-0.28125 1.2188-0.28125 0.5625-0.6875 0.875-0.40625 0.29688-1.0156 0.45312-0.60938 0.15625-1.5 0.15625h-3.5469zm1.2344-5.3906h2.0156q0.8125 0 1.1719-0.10938 0.46875-0.14062 0.70312-0.46875 0.23438-0.32812 0.23438-0.8125 0-0.46875-0.21875-0.8125-0.21875-0.35938-0.64062-0.48438-0.40625-0.125-1.4062-0.125h-1.8594v2.8125zm0 4.2969h2.3125q0.59375 0 0.84375-0.046875 0.42188-0.078125 0.70312-0.25 0.28125-0.1875 0.46875-0.51562 0.1875-0.34375 0.1875-0.79688 0-0.51562-0.26562-0.89062-0.26562-0.39062-0.75-0.54688-0.46875-0.15625-1.3594-0.15625h-2.1406v3.2031zm11.952 0.26562q-0.625 0.53125-1.2188 0.76562-0.57812 0.21875-1.25 0.21875-1.125 0-1.7188-0.54688-0.59375-0.54688-0.59375-1.3906 0-0.48438 0.21875-0.89062 0.23438-0.42188 0.59375-0.67188 0.375-0.25 0.82812-0.375 0.32812-0.078125 1.0156-0.17188 1.375-0.15625 2.0312-0.39062 0.015625-0.23438 0.015625-0.29688 0-0.70312-0.32812-0.98438-0.4375-0.39062-1.2969-0.39062-0.8125 0-1.2031 0.28125-0.375 0.28125-0.5625 1l-1.1094-0.14062q0.14062-0.71875 0.48438-1.1562 0.35938-0.45312 1.0156-0.6875 0.67188-0.23438 1.5312-0.23438 0.875 0 1.4062 0.20312 0.54688 0.20312 0.79688 0.51562 0.25 0.29688 0.35938 0.76562 0.046875 0.29688 0.046875 1.0625v1.5156q0 1.5938 0.078125 2.0156 0.078125 0.42188 0.28125 0.8125h-1.1875q-0.17188-0.35938-0.23438-0.82812zm-0.09375-2.5625q-0.625 0.26562-1.8594 0.4375-0.70312 0.10938-1 0.23438t-0.45312 0.375q-0.15625 0.23438-0.15625 0.53125 0 0.45312 0.34375 0.76562 0.34375 0.29688 1.0156 0.29688 0.65625 0 1.1719-0.28125 0.51562-0.29688 0.76562-0.79688 0.17188-0.375 0.17188-1.1406v-0.42188zm3.0844 3.3906v-9.3125h1.1406v9.3125h-1.1406zm7.383-0.82812q-0.625 0.53125-1.2188 0.76562-0.57812 0.21875-1.25 0.21875-1.125 0-1.7188-0.54688-0.59375-0.54688-0.59375-1.3906 0-0.48438 0.21875-0.89062 0.23438-0.42188 0.59375-0.67188 0.375-0.25 0.82812-0.375 0.32812-0.078125 1.0156-0.17188 1.375-0.15625 2.0312-0.39062 0.015625-0.23438 0.015625-0.29688 0-0.70312-0.32812-0.98438-0.4375-0.39062-1.2969-0.39062-0.8125 0-1.2031 0.28125-0.375 0.28125-0.5625 1l-1.1094-0.14062q0.14062-0.71875 0.48438-1.1562 0.35938-0.45312 1.0156-0.6875 0.67188-0.23438 1.5312-0.23438 0.875 0 1.4062 0.20312 0.54688 0.20312 0.79688 0.51562 0.25 0.29688 0.35938 0.76562 0.046875 0.29688 0.046875 1.0625v1.5156q0 1.5938 0.078125 2.0156 0.078125 0.42188 0.28125 0.8125h-1.1875q-0.17188-0.35938-0.23438-0.82812zm-0.09375-2.5625q-0.625 0.26562-1.8594 0.4375-0.70312 0.10938-1 0.23438t-0.45312 0.375q-0.15625 0.23438-0.15625 0.53125 0 0.45312 0.34375 0.76562 0.34375 0.29688 1.0156 0.29688 0.65625 0 1.1719-0.28125 0.51562-0.29688 0.76562-0.79688 0.17188-0.375 0.17188-1.1406v-0.42188zm3.1156 3.3906v-6.7344h1.0312v0.95312q0.73438-1.1094 2.1406-1.1094 0.60938 0 1.1094 0.21875 0.51562 0.21875 0.76562 0.57812 0.26562 0.34375 0.35938 0.84375 0.0625 0.3125 0.0625 1.1094v4.1406h-1.1406v-4.0938q0-0.70312-0.14062-1.0469-0.125-0.34375-0.46875-0.54688-0.32812-0.21875-0.78125-0.21875-0.73438 0-1.2656 0.46875-0.53125 0.45312-0.53125 1.75v3.6875h-1.1406zm11.803-2.4688l1.125 0.14062q-0.17188 1.1719-0.9375 1.8281-0.76562 0.65625-1.8594 0.65625-1.3906 0-2.2344-0.90625-0.82812-0.90625-0.82812-2.5938 0-1.0938 0.35938-1.9062 0.35938-0.82812 1.0938-1.2344 0.73438-0.40625 1.6094-0.40625 1.0938 0 1.7969 0.5625 0.70312 0.54688 0.89062 1.5625l-1.1094 0.17188q-0.15625-0.67188-0.5625-1.0156-0.39062-0.34375-0.96875-0.34375-0.85938 0-1.4062 0.625-0.53125 0.60938-0.53125 1.9531 0 1.3594 0.51562 1.9844 0.51562 0.60938 1.3594 0.60938 0.67188 0 1.125-0.40625 0.45312-0.42188 0.5625-1.2812zm6.8828 0.29688l1.1875 0.14062q-0.28125 1.0469-1.0469 1.625-0.75 0.5625-1.9219 0.5625-1.4844 0-2.3594-0.90625-0.85938-0.92188-0.85938-2.5625 0-1.7031 0.875-2.6406 0.89062-0.9375 2.2812-0.9375 1.3594 0 2.2031 0.92188 0.85938 0.92188 0.85938 2.5781 0 0.10938 0 0.3125h-5.0312q0.0625 1.1094 0.625 1.7031 0.5625 0.59375 1.4062 0.59375 0.64062 0 1.0781-0.32812 0.45312-0.34375 0.70312-1.0625zm-3.75-1.8438h3.7656q-0.078125-0.85938-0.4375-1.2812-0.54688-0.65625-1.4062-0.65625-0.79688 0-1.3281 0.53125-0.53125 0.51562-0.59375 1.4062zm6.5375 4.0156v-6.7344h1.0312v1.0156q0.39062-0.71875 0.71875-0.9375 0.34375-0.23438 0.73438-0.23438 0.57812 0 1.1719 0.35938l-0.39062 1.0625q-0.42188-0.25-0.82812-0.25-0.375 0-0.6875 0.23438-0.29688 0.21875-0.42188 0.625-0.1875 0.60938-0.1875 1.3281v3.5312h-1.1406z" fill="#000"/>
  <path d="m450.16 174.34h108.91v37.543h-108.91z" fill="#d9ead3"/>
  <path d="m500.97 189.08q-0.625 0.53125-1.2188 0.76562-0.57812 0.21875-1.25 0.21875-1.125 0-1.7188-0.54688-0.59375-0.54688-0.59375-1.3906 0-0.48438 0.21875-0.89062 0.23438-0.42188 0.59375-0.67188 0.375-0.25 0.82812-0.375 0.32812-0.078125 1.0156-0.17188 1.375-0.15625 2.0312-0.39062 0.015625-0.23438 0.015625-0.29688 0-0.70312-0.32812-0.98438-0.4375-0.39062-1.2969-0.39062-0.8125 0-1.2031 0.28125-0.375 0.28125-0.5625 1l-1.1094-0.14062q0.14062-0.71875 0.48438-1.1562 0.35938-0.45312 1.0156-0.6875 0.67188-0.23438 1.5312-0.23438 0.875 0 1.4062 0.20312 0.54688 0.20312 0.79688 0.51562 0.25 0.29688 0.35938 0.76562 0.046875 0.29688 0.046875 1.0625v1.5156q0 1.5938 0.078125 2.0156 0.078125 0.42188 0.28125 0.8125h-1.1875q-0.17188-0.35938-0.23438-0.82812zm-0.09375-2.5625q-0.625 0.26562-1.8594 0.4375-0.70312 0.10938-1 0.23438t-0.45312 0.375q-0.15625 0.23438-0.15625 0.53125 0 0.45312 0.34375 0.76562 0.34375 0.29688 1.0156 0.29688 0.65625 0 1.1719-0.28125 0.51562-0.29688 0.76562-0.79688 0.17188-0.375 0.17188-1.1406v-0.42188zm3.1156 5.9688v-9.3125h1.0312v0.875q0.375-0.51562 0.82812-0.76562 0.46875-0.26562 1.1406-0.26562 0.85938 0 1.5156 0.45312 0.65625 0.4375 0.98438 1.25 0.34375 0.79688 0.34375 1.7656 0 1.0312-0.375 1.8594-0.35938 0.82812-1.0781 1.2812-0.70312 0.4375-1.4844 0.4375-0.5625 0-1.0156-0.23438-0.45312-0.25-0.75-0.625v3.2812h-1.1406zm1.0312-5.9062q0 1.2969 0.53125 1.9219t1.2656 0.625q0.76562 0 1.3125-0.64062 0.54688-0.65625 0.54688-2 0-1.2969-0.53125-1.9375-0.53125-0.64062-1.2656-0.64062-0.73438 0-1.2969 0.6875-0.5625 0.67188-0.5625 1.9844zm6.3812-4.6562v-1.3281h1.1406v1.3281h-1.1406zm0 7.9844v-6.7344h1.1406v6.7344h-1.1406z" fill="#000"/>
  <path d="m464.44 205.91v-9.3125h1.2344v8.2188h4.5781v1.0938h-5.8125zm6.8969-3.375q0-1.875 1.0312-2.7656 0.875-0.75 2.125-0.75 1.3906 0 2.2656 0.90625 0.89062 0.90625 0.89062 2.5156 0 1.2969-0.39062 2.0469t-1.1406 1.1719q-0.75 0.40625-1.625 0.40625-1.4219 0-2.2969-0.90625-0.85938-0.90625-0.85938-2.625zm1.1719 0q0 1.2969 0.5625 1.9531 0.5625 0.64062 1.4219 0.64062 0.84375 0 1.4062-0.64062 0.57812-0.65625 0.57812-1.9844 0-1.25-0.57812-1.8906-0.5625-0.65625-1.4062-0.65625-0.85938 0-1.4219 0.64062-0.5625 0.64062-0.5625 1.9375zm11.053 2.5469q-0.625 0.53125-1.2188 0.76562-0.57812 0.21875-1.25 0.21875-1.125 0-1.7188-0.54688-0.59375-0.54688-0.59375-1.3906 0-0.48438 0.21875-0.89062 0.23438-0.42188 0.59375-0.67188 0.375-0.25 0.82812-0.375 0.32812-0.078125 1.0156-0.17188 1.375-0.15625 2.0312-0.39062 0.015625-0.23438 0.015625-0.29688 0-0.70312-0.32812-0.98438-0.4375-0.39062-1.2969-0.39062-0.8125 0-1.2031 0.28125-0.375 0.28125-0.5625 1l-1.1094-0.14062q0.14062-0.71875 0.48438-1.1562 0.35938-0.45312 1.0156-0.6875 0.67188-0.23438 1.5312-0.23438 0.875 0 1.4062 0.20312 0.54688 0.20312 0.79688 0.51562 0.25 0.29688 0.35938 0.76562 0.046875 0.29688 0.046875 1.0625v1.5156q0 1.5938 0.078125 2.0156 0.078125 0.42188 0.28125 0.8125h-1.1875q-0.17188-0.35938-0.23438-0.82812zm-0.09375-2.5625q-0.625 0.26562-1.8594 0.4375-0.70312 0.10938-1 0.23438t-0.45312 0.375q-0.15625 0.23438-0.15625 0.53125 0 0.45312 0.34375 0.76562 0.34375 0.29688 1.0156 0.29688 0.65625 0 1.1719-0.28125 0.51562-0.29688 0.76562-0.79688 0.17188-0.375 0.17188-1.1406v-0.42188zm7.4906 3.3906v-0.84375q-0.64062 1-1.8906 1-0.79688 0-1.4844-0.4375-0.67188-0.45312-1.0469-1.25-0.375-0.79688-0.375-1.8281 0-1.0156 0.34375-1.8281 0.34375-0.82812 1.0156-1.2656 0.67188-0.4375 1.5-0.4375 0.60938 0 1.0781 0.26562 0.48438 0.25 0.78125 0.65625v-3.3438h1.1406v9.3125h-1.0625zm-3.6094-3.3594q0 1.2969 0.53125 1.9375 0.54688 0.64062 1.2969 0.64062 0.75 0 1.2656-0.60938 0.53125-0.625 0.53125-1.875 0-1.3906-0.53125-2.0312-0.53125-0.65625-1.3125-0.65625-0.76562 0-1.2812 0.625-0.5 0.625-0.5 1.9688zm6.7406 3.3594v-9.3125h3.4844q1.0781 0 1.7188 0.29688 0.64062 0.28125 1 0.875 0.375 0.57812 0.375 1.2188 0 0.59375-0.32812 1.125-0.32812 0.51562-0.96875 0.84375 0.84375 0.25 1.2969 0.84375 0.45312 0.59375 0.45312 1.4062 0 0.65625-0.28125 1.2188-0.28125 0.5625-0.6875 0.875-0.40625 0.29688-1.0156 0.45312-0.60938 0.15625-1.5 0.15625h-3.5469zm1.2344-5.3906h2.0156q0.8125 0 1.1719-0.10938 0.46875-0.14062 0.70312-0.46875 0.23438-0.32812 0.23438-0.8125 0-0.46875-0.21875-0.8125-0.21875-0.35938-0.64062-0.48438-0.40625-0.125-1.4062-0.125h-1.8594v2.8125zm0 4.2969h2.3125q0.59375 0 0.84375-0.046875 0.42188-0.078125 0.70312-0.25 0.28125-0.1875 0.46875-0.51562 0.1875-0.34375 0.1875-0.79688 0-0.51562-0.26562-0.89062-0.26562-0.39062-0.75-0.54688-0.46875-0.15625-1.3594-0.15625h-2.1406v3.2031zm11.952 0.26562q-0.625 0.53125-1.2188 0.76562-0.57812 0.21875-1.25 0.21875-1.125 0-1.7188-0.54688-0.59375-0.54688-0.59375-1.3906 0-0.48438 0.21875-0.89062 0.23438-0.42188 0.59375-0.67188 0.375-0.25 0.82812-0.375 0.32812-0.078125 1.0156-0.17188 1.375-0.15625 2.0312-0.39062 0.015625-0.23438 0.015625-0.29688 0-0.70312-0.32812-0.98438-0.4375-0.39062-1.2969-0.39062-0.8125 0-1.2031 0.28125-0.375 0.28125-0.5625 1l-1.1094-0.14062q0.14062-0.71875 0.48438-1.1562 0.35938-0.45312 1.0156-0.6875 0.67188-0.23438 1.5312-0.23438 0.875 0 1.4062 0.20312 0.54688 0.20312 0.79688 0.51562 0.25 0.29688 0.35938 0.76562 0.046875 0.29688 0.046875 1.0625v1.5156q0 1.5938 0.078125 2.0156 0.078125 0.42188 0.28125 0.8125h-1.1875q-0.17188-0.35938-0.23438-0.82812zm-0.09375-2.5625q-0.625 0.26562-1.8594 0.4375-0.70312 0.10938-1 0.23438t-0.45312 0.375q-0.15625 0.23438-0.15625 0.53125 0 0.45312 0.34375 0.76562 0.34375 0.29688 1.0156 0.29688 0.65625 0 1.1719-0.28125 0.51562-0.29688 0.76562-0.79688 0.17188-0.375 0.17188-1.1406v-0.42188zm3.0844 3.3906v-9.3125h1.1406v9.3125h-1.1406zm7.383-0.82812q-0.625 0.53125-1.2188 0.76562-0.57812 0.21875-1.25 0.21875-1.125 0-1.7188-0.54688-0.59375-0.54688-0.59375-1.3906 0-0.48438 0.21875-0.89062 0.23438-0.42188 0.59375-0.67188 0.375-0.25 0.82812-0.375 0.32812-0.078125 1.0156-0.17188 1.375-0.15625 2.0312-0.39062 0.015625-0.23438 0.015625-0.29688 0-0.70312-0.32812-0.98438-0.4375-0.39062-1.2969-0.39062-0.8125 0-1.2031 0.28125-0.375 0.28125-0.5625 1l-1.1094-0.14062q0.14062-0.71875 0.48438-1.1562 0.35938-0.45312 1.0156-0.6875 0.67188-0.23438 1.5312-0.23438 0.875 0 1.4062 0.20312 0.54688 0.20312 0.79688 0.51562 0.25 0.29688 0.35938 0.76562 0.046875 0.29688 0.046875 1.0625v1.5156q0 1.5938 0.078125 2.0156 0.078125 0.42188 0.28125 0.8125h-1.1875q-0.17188-0.35938-0.23438-0.82812zm-0.09375-2.5625q-0.625 0.26562-1.8594 0.4375-0.70312 0.10938-1 0.23438t-0.45312 0.375q-0.15625 0.23438-0.15625 0.53125 0 0.45312 0.34375 0.76562 0.34375 0.29688 1.0156 0.29688 0.65625 0 1.1719-0.28125 0.51562-0.29688 0.76562-0.79688 0.17188-0.375 0.17188-1.1406v-0.42188zm3.1156 3.3906v-6.7344h1.0312v0.95312q0.73438-1.1094 2.1406-1.1094 0.60938 0 1.1094 0.21875 0.51562 0.21875 0.76562 0.57812 0.26562 0.34375 0.35938 0.84375 0.0625 0.3125 0.0625 1.1094v4.1406h-1.1406v-4.0938q0-0.70312-0.14062-1.0469-0.125-0.34375-0.46875-0.54688-0.32812-0.21875-0.78125-0.21875-0.73438 0-1.2656 0.46875-0.53125 0.45312-0.53125 1.75v3.6875h-1.1406zm11.803-2.4688l1.125 0.14062q-0.17188 1.1719-0.9375 1.8281-0.76562 0.65625-1.8594 0.65625-1.3906 0-2.2344-0.90625-0.82812-0.90625-0.82812-2.5938 0-1.0938 0.35938-1.9062 0.35938-0.82812 1.0938-1.2344 0.73438-0.40625 1.6094-0.40625 1.0938 0 1.7969 0.5625 0.70312 0.54688 0.89062 1.5625l-1.1094 0.17188q-0.15625-0.67188-0.5625-1.0156-0.39062-0.34375-0.96875-0.34375-0.85938 0-1.4062 0.625-0.53125 0.60938-0.53125 1.9531 0 1.3594 0.51562 1.9844 0.51562 0.60938 1.3594 0.60938 0.67188 0 1.125-0.40625 0.45312-0.42188 0.5625-1.2812zm6.8828 0.29688l1.1875 0.14062q-0.28125 1.0469-1.0469 1.625-0.75 0.5625-1.9219 0.5625-1.4844 0-2.3594-0.90625-0.85938-0.92188-0.85938-2.5625 0-1.7031 0.875-2.6406 0.89062-0.9375 2.2812-0.9375 1.3594 0 2.2031 0.92188 0.85938 0.92188 0.85938 2.5781 0 0.10938 0 0.3125h-5.0312q0.0625 1.1094 0.625 1.7031 0.5625 0.59375 1.4062 0.59375 0.64062 0 1.0781-0.32812 0.45312-0.34375 0.70312-1.0625zm-3.75-1.8438h3.7656q-0.078125-0.85938-0.4375-1.2812-0.54688-0.65625-1.4062-0.65625-0.79688 0-1.3281 0.53125-0.53125 0.51562-0.59375 1.4062zm6.5375 4.0156v-6.7344h1.0312v1.0156q0.39062-0.71875 0.71875-0.9375 0.34375-0.23438 0.73438-0.23438 0.57812 0 1.1719 0.35938l-0.39062 1.0625q-0.42188-0.25-0.82812-0.25-0.375 0-0.6875 0.23438-0.29688 0.21875-0.42188 0.625-0.1875 0.60938-0.1875 1.3281v3.5312h-1.1406z" fill="#000"/>
  <path fill-opacity="0" d="m410.96 45.276l39.202 24.094" fill="#000"/>
  <path stroke-linejoin="round" d="m410.96 45.276l34.09 20.953" fill-rule="evenodd" stroke="#000" stroke-linecap="butt"/>
  <path d="m444.18 67.636l4.7311 0.96908-3.0013-3.7835z" fill-rule="evenodd" stroke="#000" stroke-linecap="butt" fill="#000"/>
  <path fill-opacity="0" d="m410.96 92.394l39.202-23.024" fill="#000"/>
  <path stroke-linejoin="round" d="m410.96 92.394l34.028-19.985" fill-rule="evenodd" stroke="#000" stroke-linecap="butt"/>
  <path d="m445.82 73.833l3.0767-3.7225-4.7496 0.87394z" fill-rule="evenodd" stroke="#000" stroke-linecap="butt" fill="#000"/>
  <path fill-opacity="0" d="m410.96 168.48l39.202 24.63" fill="#000"/>
  <path stroke-linejoin="round" d="m410.96 168.48l34.122 21.438" fill-rule="evenodd" stroke="#000" stroke-linecap="butt"/>
  <path d="m444.2 191.32l4.7213 1.0156-2.9639-3.8128z" fill-rule="evenodd" stroke="#000" stroke-linecap="butt" fill="#000"/>
  <path fill-opacity="0" d="m410.96 215.6l39.202-22.488" fill="#000"/>
  <path stroke-linejoin="round" d="m410.96 215.6l33.998-19.503" fill-rule="evenodd" stroke="#000" stroke-linecap="butt"/>
  <path d="m445.78 197.53l3.1145-3.6908-4.7583 0.82538z" fill-rule="evenodd" stroke="#000" stroke-linecap="butt" fill="#000"/>
  <path fill-opacity="0" d="m559.07 69.37l39.199-24.094" fill="#000"/>
  <path stroke-linejoin="round" d="m559.07 69.37l34.088-20.953" fill-rule="evenodd" stroke="#000" stroke-linecap="butt"/>
  <path d="m594.03 49.825l3.0012-3.7835-4.7311 0.96922z" fill-rule="evenodd" stroke="#000" stroke-linecap="butt" fill="#000"/>
  <path fill-opacity="0" d="m559.07 69.37l39.199 23.024" fill="#000"/>
  <path stroke-linejoin="round" d="m559.07 69.37l34.026 19.985" fill-rule="evenodd" stroke="#000" stroke-linecap="butt"/>
  <path d="m592.26 90.779l4.7496 0.87408-3.0765-3.7226z" fill-rule="evenodd" stroke="#000" stroke-linecap="butt" fill="#000"/>
  <path fill-opacity="0" d="m559.07 193.11l39.199-24.63" fill="#000"/>
  <path stroke-linejoin="round" d="m559.07 193.11l34.119-21.438" fill-rule="evenodd" stroke="#000" stroke-linecap="butt"/>
  <path d="m594.07 173.07l2.9638-3.8129-4.7213 1.0158z" fill-rule="evenodd" stroke="#000" stroke-linecap="butt" fill="#000"/>
  <path fill-opacity="0" d="m559.07 193.11l39.199 22.488" fill="#000"/>
  <path stroke-linejoin="round" d="m559.07 193.11l33.995 19.503" fill-rule="evenodd" stroke="#000" stroke-linecap="butt"/>
  <path d="m592.25 214.05l4.7583 0.8255-3.1144-3.6909z" fill-rule="evenodd" stroke="#000" stroke-linecap="butt" fill="#000"/>
  <path fill-opacity="0" d="m698.05 45.276l109.16 80.281" fill="#000"/>
  <path stroke-linejoin="round" d="m698.05 45.276l104.33 76.726" fill-rule="evenodd" stroke="#000" stroke-linecap="butt"/>
  <path d="m801.4 123.33l4.6345 1.358-2.6773-4.0193z" fill-rule="evenodd" stroke="#000" stroke-linecap="butt" fill="#000"/>
  <path fill-opacity="0" d="m698.05 92.394l109.16 33.163" fill="#000"/>
  <path stroke-linejoin="round" d="m698.05 92.394l103.42 31.419" fill-rule="evenodd" stroke="#000" stroke-linecap="butt"/>
  <path d="m800.99 125.39l4.8223-0.26127-3.8621-2.8996z" fill-rule="evenodd" stroke="#000" stroke-linecap="butt" fill="#000"/>
  <path fill-opacity="0" d="m698.05 168.48l109.16-42.927" fill="#000"/>
  <path stroke-linejoin="round" d="m698.05 168.48l103.58-40.731" fill-rule="evenodd" stroke="#000" stroke-linecap="butt"/>
  <path d="m802.23 129.29l3.6188-3.1979-4.8278 0.12363z" fill-rule="evenodd" stroke="#000" stroke-linecap="butt" fill="#000"/>
  <path fill-opacity="0" d="m698.05 215.6l109.16-90.045" fill="#000"/>
  <path stroke-linejoin="round" d="m698.05 215.6l104.53-86.227" fill-rule="evenodd" stroke="#000" stroke-linecap="butt"/>
  <path d="m803.64 130.65l2.4497-4.1619-4.5518 1.6135z" fill-rule="evenodd" stroke="#000" stroke-linecap="butt" fill="#000"/>
  <path fill-opacity="0" d="m212.7 83.008l98.48-37.732" fill="#000"/>
  <path stroke-linejoin="round" d="m212.7 83.008l92.877-35.586" fill-rule="evenodd" stroke="#000" stroke-linecap="butt"/>
  <path d="m306.17 48.965l3.6467-3.166-4.8287 0.081261z" fill-rule="evenodd" stroke="#000" stroke-linecap="butt" fill="#000"/>
  <path fill-opacity="0" d="m212.7 83.008l98.48 9.3858" fill="#000"/>
  <path stroke-linejoin="round" d="m212.7 83.008l92.507 8.8166" fill-rule="evenodd" stroke="#000" stroke-linecap="butt"/>
  <path d="m305.05 93.469l4.6743-1.2137-4.3609-2.0748z" fill-rule="evenodd" stroke="#000" stroke-linecap="butt" fill="#000"/>
  <path fill-opacity="0" d="m212.7 176.2l98.48-7.7165" fill="#000"/>
  <path stroke-linejoin="round" d="m212.7 176.2l92.499-7.2478" fill-rule="evenodd" stroke="#000" stroke-linecap="butt"/>
  <path d="m305.33 170.6l4.3952-2.0012-4.6533-1.2922z" fill-rule="evenodd" stroke="#000" stroke-linecap="butt" fill="#000"/>
  <path fill-opacity="0" d="m212.7 176.2l98.48 39.402" fill="#000"/>
  <path stroke-linejoin="round" d="m212.7 176.2l92.91 37.173" fill-rule="evenodd" stroke="#000" stroke-linecap="butt"/>
  <path d="m304.99 214.91l4.8269 0.15221-3.5998-3.2193z" fill-rule="evenodd" stroke="#000" stroke-linecap="butt" fill="#000"/>
  <path d="m6.0577 83.422c0-11.855 11.302-21.465 25.244-21.465s25.244 9.61 25.244 21.465-11.302 21.465-25.244 21.465-25.244-9.61-25.244-21.465z" fill="#fff2cc"/>
  <path d="m20.585 77.003c0-1.2348 1.1773-2.2359 2.6296-2.2359s2.6296 1.001 2.6296 2.2359c0 1.2348-1.1773 2.2359-2.6296 2.2359s-2.6296-1.001-2.6296-2.2359m16.175 0c0-1.2348 1.1773-2.2359 2.6296-2.2359s2.6296 1.001 2.6296 2.2359c0 1.2348-1.1773 2.2359-2.6296 2.2359s-2.6296-1.001-2.6296-2.2359" fill="#cbc1a3"/>
  <path fill-opacity="0" d="m17.619 92.783q13.682 7.99 27.333 0" fill="#000"/>
  <path fill-opacity="0" d="m6.0577 83.422c0-11.855 11.302-21.465 25.244-21.465s25.244 9.61 25.244 21.465-11.302 21.465-25.244 21.465-25.244-9.61-25.244-21.465z" fill="#000"/>
  <path stroke-linejoin="round" d="m20.585 77.003c0-1.2348 1.1773-2.2359 2.6296-2.2359s2.6296 1.001 2.6296 2.2359c0 1.2348-1.1773 2.2359-2.6296 2.2359s-2.6296-1.001-2.6296-2.2359m16.175 0c0-1.2348 1.1773-2.2359 2.6296-2.2359s2.6296 1.001 2.6296 2.2359c0 1.2348-1.1773 2.2359-2.6296 2.2359s-2.6296-1.001-2.6296-2.2359" stroke="#000" stroke-linecap="butt"/>
  <path stroke-linejoin="round" d="m17.619 92.783q13.682 7.99 27.333 0" stroke="#000" stroke-linecap="butt"/>
  <path stroke-linejoin="round" d="m6.0577 83.422c0-11.855 11.302-21.465 25.244-21.465s25.244 9.61 25.244 21.465-11.302 21.465-25.244 21.465-25.244-9.61-25.244-21.465z" stroke="#000" stroke-linecap="butt"/>
  <path fill-opacity="0" d="m1.3773 94.921h57.417v18.772h-57.417z" fill="#000"/>
  <path d="m23.125 107.41h1.2344v5.3906q0 1.3906-0.32812 2.2188-0.3125 0.82812-1.1406 1.3438-0.82812 0.51562-2.1719 0.51562-1.3125 0-2.1406-0.45312-0.82812-0.45312-1.1875-1.2969-0.35938-0.85938-0.35938-2.3281v-5.3906h1.2344v5.375q0 1.2188 0.21875 1.7969 0.23438 0.5625 0.78125 0.875 0.54688 0.3125 1.3438 0.3125 1.3594 0 1.9375-0.60938 0.57812-0.625 0.57812-2.375v-5.375zm2.922 7.2969l1.125-0.17188q0.09375 0.67188 0.53125 1.0469 0.4375 0.35938 1.2188 0.35938 0.78125 0 1.1562-0.3125 0.39062-0.32812 0.39062-0.76562 0-0.39062-0.34375-0.60938-0.23438-0.15625-1.1719-0.39062-1.25-0.3125-1.7344-0.54688-0.48438-0.23438-0.73438-0.64062-0.25-0.40625-0.25-0.90625 0-0.45312 0.20312-0.82812 0.20312-0.39062 0.5625-0.64062 0.26562-0.20312 0.71875-0.32812 0.46875-0.14062 1-0.14062 0.78125 0 1.375 0.23438 0.60938 0.21875 0.89062 0.60938 0.29688 0.39062 0.40625 1.0469l-1.125 0.15625q-0.078125-0.53125-0.4375-0.8125-0.35938-0.29688-1.0312-0.29688-0.78125 0-1.125 0.26562-0.34375 0.25-0.34375 0.60938 0 0.21875 0.14062 0.39062 0.14062 0.1875 0.4375 0.3125 0.17188 0.0625 1.0156 0.28125 1.2188 0.32812 1.6875 0.53125 0.48438 0.20312 0.75 0.60938 0.28125 0.39062 0.28125 0.96875 0 0.57812-0.34375 1.0781-0.32812 0.5-0.95312 0.78125t-1.4219 0.28125q-1.3125 0-2-0.54688t-0.875-1.625zm11.727-0.15625l1.1875 0.14062q-0.28125 1.0469-1.0469 1.625-0.75 0.5625-1.9219 0.5625-1.4844 0-2.3594-0.90625-0.85938-0.92188-0.85938-2.5625 0-1.7031 0.875-2.6406 0.89062-0.9375 2.2812-0.9375 1.3594 0 2.2031 0.92188 0.85938 0.92188 0.85938 2.5781 0 0.10938 0 0.3125h-5.0312q0.0625 1.1094 0.625 1.7031 0.5625 0.59375 1.4062 0.59375 0.64062 0 1.0781-0.32812 0.45312-0.34375 0.70312-1.0625zm-3.75-1.8438h3.7656q-0.078125-0.85938-0.4375-1.2812-0.54688-0.65625-1.4062-0.65625-0.79688 0-1.3281 0.53125-0.53125 0.51562-0.59375 1.4062zm6.5375 4.0156v-6.7344h1.0312v1.0156q0.39062-0.71875 0.71875-0.9375 0.34375-0.23438 0.73438-0.23438 0.57812 0 1.1719 0.35938l-0.39062 1.0625q-0.42188-0.25-0.82812-0.25-0.375 0-0.6875 0.23438-0.29688 0.21875-0.42188 0.625-0.1875 0.60938-0.1875 1.3281v3.5312h-1.1406z" fill="#000"/>
  <path fill-opacity="0" d="m56.546 83.422l47.239-0.41447" fill="#000"/>
  <path stroke-linejoin="round" d="m56.546 83.422l41.239-0.36182" fill-rule="evenodd" stroke="#000" stroke-linecap="butt"/>
  <path d="m97.8 84.712l4.5234-1.6915-4.5524-1.6119z" fill-rule="evenodd" stroke="#000" stroke-linecap="butt" fill="#000"/>
 </g>
</svg>
